<svg xmlns="http://www.w3.org/2000/svg" xmlns:xlink="http://www.w3.org/1999/xlink" width="500" zoomAndPan="magnify" viewBox="0 0 375 374.999991" height="500" preserveAspectRatio="xMidYMid meet" version="1.0"><path fill="#0c228a" d="M 127.53125 305.425781 L 103.40625 277.625 L 108.128906 259.121094 C 116.058594 260.992188 121.300781 261.394531 125.71875 259.4375 C 132.289062 256.527344 134.71875 249.273438 136.8125 241.449219 C 137.34375 239.484375 136.695312 237.410156 135.164062 236.089844 L 136.863281 235.429688 C 139.003906 234.605469 140.371094 232.488281 140.230469 230.203125 L 139.640625 220.257812 L 145.921875 213.839844 C 148.652344 211.035156 149.03125 206.820312 146.804688 203.542969 L 136.261719 188.324219 C 136.203125 187.441406 136.144531 186.394531 136.085938 185.261719 C 135.636719 176.980469 135.152344 170.078125 133.773438 165.648438 C 134.351562 164.1875 134.777344 162.820312 135.070312 161.5625 C 137.804688 149.992188 132.984375 137.941406 122.171875 129.34375 C 110.417969 119.992188 89.058594 113.160156 64.605469 121.296875 C 58.597656 114.066406 48.359375 110.789062 38.628906 113.40625 C 25.25 117 17.121094 130.261719 20.511719 142.996094 C 21.503906 146.683594 23.410156 150.0625 26.039062 152.84375 C 18.910156 164.269531 14.199219 177.441406 13.445312 189.949219 C 12.410156 206.996094 18.804688 220.929688 31.433594 229.210938 C 36.5 232.546875 42.105469 234.558594 47.820312 235.300781 C 46.417969 238.117188 44.566406 241.191406 42.742188 244.183594 C 42.460938 244.644531 42.1875 245.101562 41.90625 245.5625 C 15.90625 265.445312 4.445312 288.308594 7.851562 313.554688 L 7.851562 368.328125 C 7.851562 371.238281 10.21875 373.605469 13.128906 373.605469 L 142.761719 373.605469 C 145.15625 373.605469 147.25 371.992188 147.863281 369.671875 C 155.015625 342.648438 148.160156 321.035156 127.53125 305.425781 Z M 125.542969 185.828125 C 125.648438 187.710938 125.730469 189.335938 125.835938 190.574219 C 125.90625 191.492188 126.222656 192.386719 126.753906 193.140625 L 136.96875 207.890625 L 130.464844 214.558594 C 129.417969 215.617188 128.875 217.066406 128.96875 218.550781 L 129.464844 226.972656 L 122.65625 229.601562 C 120.875 230.285156 119.617188 231.875 119.332031 233.757812 C 119.0625 235.644531 119.816406 237.527344 121.324219 238.695312 L 125.660156 242.0625 C 124.199219 246.789062 122.890625 249.144531 121.453125 249.777344 C 118.886719 250.921875 112.40625 249.390625 106.351562 247.789062 L 89.578125 238.117188 C 87.058594 236.65625 83.828125 237.527344 82.367188 240.050781 C 80.917969 242.582031 81.78125 245.808594 84.3125 247.257812 L 98.210938 255.28125 L 92.5 277.695312 C 92.0625 279.371094 92.488281 281.148438 93.617188 282.457031 L 109.851562 301.152344 C 82.675781 295.011719 61.519531 284.199219 51.613281 249.921875 C 51.660156 249.839844 51.71875 249.742188 51.765625 249.660156 C 54.558594 245.054688 57.453125 240.296875 59.128906 235.796875 C 59.222656 235.5625 59.28125 235.324219 59.328125 235.089844 C 65.769531 233.996094 71.980469 231.273438 77.339844 226.9375 C 78.695312 225.84375 79.421875 224.136719 79.269531 222.390625 C 79.128906 220.648438 78.128906 219.09375 76.597656 218.234375 C 73.664062 216.585938 71.636719 213.628906 71.15625 210.28125 C 70.742188 207.429688 71.507812 204.535156 73.203125 202.261719 C 100.933594 196.207031 116.433594 187.109375 125.070312 178.453125 C 125.304688 181.351562 125.457031 184.144531 125.542969 185.828125 Z M 30.714844 140.261719 C 28.816406 133.160156 33.589844 125.691406 41.363281 123.605469 C 45.886719 122.382812 50.550781 123.277344 53.992188 125.726562 C 46.085938 129.746094 38.667969 136.140625 32.375 143.914062 C 31.632812 142.808594 31.066406 141.582031 30.714844 140.273438 Z M 23.976562 190.585938 C 25.296875 168.851562 41.058594 143.890625 59.128906 134.949219 C 60.871094 134.078125 62.613281 133.3125 64.359375 132.628906 C 64.441406 132.605469 64.523438 132.570312 64.617188 132.535156 C 72.167969 129.601562 79.566406 128.332031 86.445312 128.332031 C 98.367188 128.332031 108.71875 132.136719 115.597656 137.601562 C 123.246094 143.679688 126.589844 151.523438 124.789062 159.132812 C 124.480469 160.441406 124.035156 161.738281 123.445312 163.011719 C 123.351562 163.164062 123.269531 163.328125 123.195312 163.492188 C 117.09375 175.945312 97.882812 186.296875 69.292969 192.304688 C 68.28125 192.519531 67.347656 193.023438 66.632812 193.753906 C 61.964844 198.480469 59.75 205.226562 60.707031 211.777344 C 61.257812 215.628906 62.851562 219.222656 65.253906 222.203125 C 56.382812 226.527344 45.757812 225.996094 37.21875 220.390625 C 25.261719 212.542969 23.421875 199.855469 23.976562 190.585938 Z M 138.59375 363.050781 L 62.285156 363.050781 L 62.285156 320.929688 C 62.285156 319.527344 61.71875 318.171875 60.730469 317.183594 L 55.640625 312.117188 C 53.578125 310.066406 50.234375 310.066406 48.171875 312.140625 C 46.121094 314.203125 46.121094 317.546875 48.195312 319.597656 L 51.730469 323.121094 L 51.730469 363.050781 L 18.40625 363.050781 L 18.40625 313.1875 C 18.40625 312.941406 18.394531 312.695312 18.359375 312.457031 C 15.554688 292.503906 23.671875 274.667969 43.128906 258.121094 C 49.398438 276.355469 59.492188 289.664062 73.839844 298.640625 C 88.328125 307.710938 105.386719 311.375 121.722656 314.261719 C 137.425781 326.40625 142.964844 342.414062 138.59375 363.050781 Z M 330.8125 243.347656 C 331.957031 243.441406 333.0625 243.476562 334.125 243.476562 L 334.230469 243.476562 C 336.234375 243.476562 338.058594 242.347656 338.941406 240.554688 C 366.800781 184.53125 370.546875 141.820312 349.792969 117.035156 C 328.988281 92.214844 285.957031 88.492188 225.351562 106.277344 C 224.785156 106.445312 224.265625 106.703125 223.785156 107.03125 C 213.300781 114.453125 210 128.566406 216.128906 139.886719 C 219.09375 145.375 226.117188 149.179688 233.949219 151.277344 C 232.960938 152.796875 232.019531 154.363281 231.132812 155.976562 C 230.78125 156.625 230.570312 157.332031 230.511719 158.0625 L 228.625 180.433594 L 215.996094 201.316406 C 214.75 203.378906 215.054688 206.019531 216.738281 207.738281 L 225.292969 216.476562 L 225.363281 218.164062 C 225.988281 234.714844 226.269531 242.277344 230.523438 247.351562 C 235.222656 252.949219 242.394531 252.902344 255.425781 252.804688 C 256.296875 252.792969 257.203125 252.792969 258.144531 252.78125 L 261.714844 262.019531 L 255.894531 266.507812 C 253.703125 268.203125 253.199219 271.300781 254.730469 273.609375 L 261.773438 284.175781 L 253.328125 290.691406 C 229.566406 308.394531 221.132812 343.570312 221.132812 368.328125 C 221.132812 371.238281 223.488281 373.605469 226.410156 373.605469 L 357.070312 373.605469 C 359.980469 373.605469 362.347656 371.238281 362.347656 368.328125 L 362.347656 311.070312 C 365.71875 286.085938 355.117188 263.324219 330.8125 243.347656 Z M 266.25 271.855469 L 311.777344 236.714844 C 313.875 238.28125 316.195312 239.554688 318.621094 240.53125 L 277.96875 289.453125 Z M 225.410156 134.867188 C 221.957031 128.484375 223.617188 120.589844 229.226562 116.152344 C 257.601562 107.90625 281.847656 104.546875 301.304688 106.195312 C 319.601562 107.738281 333.195312 113.664062 341.699219 123.820312 C 358.945312 144.410156 355.128906 183.023438 331.015625 232.757812 C 325.464844 232.203125 319.339844 230.179688 316.066406 226.382812 C 312.765625 222.578125 312.097656 214.453125 312.886719 207.574219 C 319.140625 199.515625 318.894531 188.066406 312.0625 180.277344 C 304.851562 172.023438 292.636719 170.539062 283.636719 176.816406 C 277.382812 181.164062 274.105469 188.289062 274.449219 195.453125 C 273.988281 195.121094 273.554688 194.734375 273.140625 194.296875 C 270.667969 191.671875 269.796875 188.042969 270.75 184.378906 C 274.742188 169.007812 271.679688 163.667969 267.273438 158.273438 C 265.046875 155.554688 263.28125 153.410156 263.398438 146.566406 C 263.421875 144.796875 262.574219 143.136719 261.113281 142.136719 C 259.675781 141.136719 257.816406 140.921875 256.179688 141.570312 C 253.246094 142.726562 248.851562 142.925781 244.28125 142.429688 C 244.007812 142.382812 243.75 142.347656 243.480469 142.335938 C 235.550781 141.347656 227.304688 138.378906 225.410156 134.867188 Z M 267.980469 248.953125 L 280.277344 237.691406 C 282.421875 235.726562 282.578125 232.378906 280.609375 230.238281 C 278.628906 228.082031 275.296875 227.941406 273.152344 229.90625 L 259.699219 242.226562 C 258.167969 242.226562 256.71875 242.238281 255.351562 242.253906 C 246.507812 242.3125 240.109375 242.359375 238.613281 240.566406 C 236.683594 238.257812 236.375 230.105469 235.90625 217.761719 L 235.765625 214.039062 C 235.714844 212.730469 235.175781 211.484375 234.257812 210.554688 L 227.140625 203.285156 L 238.296875 184.835938 C 238.71875 184.144531 238.96875 183.355469 239.039062 182.550781 L 240.933594 160.089844 C 242.347656 157.601562 243.914062 155.269531 245.601562 153.113281 C 248.296875 153.269531 250.902344 153.210938 253.292969 152.9375 C 254.351562 159.15625 257.027344 162.421875 259.109375 164.964844 C 261.75 168.191406 263.492188 170.324219 260.535156 181.726562 C 258.6875 188.878906 260.523438 196.277344 265.449219 201.519531 C 270.007812 206.371094 276.4375 208.550781 282.671875 207.347656 C 284.320312 207.03125 285.722656 205.945312 286.441406 204.425781 C 287.160156 202.90625 287.113281 201.128906 286.308594 199.65625 C 283.648438 194.757812 285.097656 188.65625 289.667969 185.472656 C 294.25 182.28125 300.457031 183.035156 304.121094 187.230469 C 307.785156 191.421875 307.726562 197.675781 303.957031 201.789062 C 303.25 202.566406 302.777344 203.542969 302.625 204.582031 C 302.070312 208.351562 300.882812 219.765625 305.050781 228.574219 L 270.429688 255.292969 Z M 351.839844 309.972656 C 351.804688 310.222656 351.78125 310.46875 351.78125 310.714844 L 351.78125 363.050781 L 316.5 363.050781 L 316.5 326.59375 C 316.5 323.671875 314.144531 321.304688 311.222656 321.304688 C 308.316406 321.304688 305.945312 323.671875 305.945312 326.59375 L 305.945312 363.050781 L 231.816406 363.050781 C 232.984375 339.917969 241.722656 312.46875 259.664062 299.136719 C 259.6875 299.113281 259.710938 299.101562 259.746094 299.078125 L 267.640625 292.988281 L 273.105469 301.199219 C 274.035156 302.585938 275.554688 303.460938 277.226562 303.542969 C 277.324219 303.554688 277.40625 303.554688 277.5 303.554688 C 279.066406 303.554688 280.5625 302.859375 281.5625 301.644531 L 323.59375 251.074219 C 345.632812 268.957031 354.878906 288.261719 351.839844 309.972656 Z M 81.519531 104.089844 C 96.574219 114.546875 116.929688 121.332031 138.992188 123.253906 L 177.679688 152.808594 C 178.621094 153.527344 179.75 153.890625 180.894531 153.890625 C 181.625 153.890625 182.367188 153.738281 183.0625 153.433594 C 184.828125 152.632812 186.019531 150.925781 186.148438 148.992188 L 188.257812 119.378906 C 204.722656 115.125 218.90625 108.105469 229.449219 98.929688 C 241.558594 88.386719 247.96875 75.78125 247.96875 62.492188 C 247.96875 45.625 237.671875 29.96875 218.953125 18.390625 C 201.039062 7.292969 177.3125 1.179688 152.164062 1.179688 C 127.015625 1.179688 103.300781 7.292969 85.382812 18.390625 C 66.667969 29.96875 56.359375 45.636719 56.359375 62.492188 C 56.359375 78.03125 65.300781 92.804688 81.519531 104.089844 Z M 90.933594 27.367188 C 107.210938 17.285156 128.957031 11.734375 152.164062 11.734375 C 175.371094 11.734375 197.125 17.285156 213.40625 27.367188 C 228.882812 36.945312 237.414062 49.417969 237.414062 62.492188 C 237.414062 83.414062 215.183594 102.496094 182.09375 110 C 179.820312 110.519531 178.160156 112.464844 177.996094 114.785156 L 176.3125 138.484375 L 144.175781 113.925781 C 143.363281 113.3125 142.386719 112.933594 141.375 112.863281 C 120.546875 111.261719 101.429688 105.078125 87.550781 95.417969 C 74.242188 86.171875 66.914062 74.472656 66.914062 62.492188 C 66.914062 49.429688 75.441406 36.945312 90.933594 27.367188 Z M 101.238281 69.84375 C 113.761719 69.84375 119.179688 62.386719 124.433594 55.167969 C 131.441406 45.53125 140.171875 33.527344 171.410156 30.300781 C 175.226562 29.910156 176.804688 31.324219 177.75 32.609375 C 180.671875 36.578125 180.824219 45.449219 178.195312 52.515625 C 159.867188 41.125 148.0625 42.042969 140.785156 45.957031 C 128.839844 52.386719 126.011719 68.007812 128.507812 80.632812 C 130.972656 93.074219 138.074219 101.378906 147.039062 102.308594 C 147.628906 102.367188 148.21875 102.402344 148.816406 102.402344 C 160.207031 102.390625 171.539062 91 182.601562 68.464844 C 187.597656 72.390625 193.179688 77.3125 199.410156 83.449219 C 201.484375 85.5 204.832031 85.476562 206.867188 83.402344 C 208.917969 81.328125 208.894531 77.984375 206.820312 75.933594 C 199.625 68.84375 193.0625 63.152344 187.089844 58.652344 C 187.21875 58.347656 187.347656 58.054688 187.480469 57.746094 C 191.472656 48.382812 192.320312 34.589844 186.242188 26.34375 C 182.625 21.441406 176.972656 19.109375 170.328125 19.804688 C 134.398438 23.515625 123.703125 38.214844 115.894531 48.960938 C 110.6875 56.121094 108.09375 59.289062 101.238281 59.289062 C 98.332031 59.289062 95.960938 61.65625 95.960938 64.566406 C 95.960938 67.476562 98.332031 69.84375 101.238281 69.84375 Z M 148.121094 91.800781 C 144.070312 91.390625 140.347656 86.078125 138.863281 78.585938 C 137.121094 69.785156 138.945312 58.9375 145.789062 55.261719 C 147.097656 54.554688 149.113281 53.859375 152.035156 53.859375 C 156.757812 53.859375 163.800781 55.671875 173.886719 62.199219 C 163.105469 84.6875 153.683594 92.367188 148.121094 91.800781 Z M 185.121094 222.921875 C 159.761719 222.921875 139.015625 243.546875 138.875 268.898438 C 138.839844 273.03125 140.394531 276.882812 143.246094 279.757812 C 146.039062 282.574219 149.785156 284.128906 153.8125 284.128906 C 162.046875 284.128906 168.75 277.414062 168.75 269.167969 C 168.75 260.15625 176.085938 252.816406 185.121094 252.816406 C 194.144531 252.816406 201.484375 260.15625 201.484375 269.167969 C 201.484375 281.488281 194.476562 285.449219 186.359375 290.019531 C 179.152344 294.082031 170.1875 299.148438 170.1875 311.082031 L 170.1875 325.027344 C 170.1875 333.261719 176.878906 339.964844 185.121094 339.964844 C 193.355469 339.964844 200.058594 333.261719 200.058594 325.027344 L 200.058594 315.992188 C 200.058594 314.121094 201.039062 312.648438 202.757812 311.941406 C 220.132812 304.742188 231.359375 287.957031 231.359375 269.167969 C 231.359375 243.664062 210.613281 222.921875 185.121094 222.921875 Z M 198.726562 302.175781 C 193.039062 304.53125 189.503906 309.820312 189.503906 315.992188 L 189.503906 325.027344 C 189.503906 327.441406 187.539062 329.410156 185.121094 329.410156 C 182.707031 329.410156 180.742188 327.441406 180.742188 325.027344 L 180.742188 311.070312 C 180.742188 305.566406 184.441406 303.222656 191.542969 299.21875 C 200.199219 294.339844 212.039062 287.652344 212.039062 269.167969 C 212.039062 254.324219 199.964844 242.265625 185.121094 242.265625 C 170.269531 242.265625 158.195312 254.339844 158.195312 269.167969 C 158.195312 271.59375 156.226562 273.574219 153.8125 273.574219 C 152.292969 273.574219 151.304688 272.890625 150.738281 272.324219 C 149.878906 271.464844 149.417969 270.277344 149.429688 268.96875 C 149.535156 249.402344 165.558594 233.476562 185.121094 233.476562 C 204.796875 233.476562 220.804688 249.484375 220.804688 269.167969 C 220.804688 283.667969 212.132812 296.628906 198.726562 302.175781 Z M 185.121094 343.734375 C 176.878906 343.734375 170.1875 350.425781 170.1875 358.671875 C 170.1875 366.90625 176.878906 373.605469 185.121094 373.605469 C 193.355469 373.605469 200.058594 366.90625 200.058594 358.671875 C 200.058594 350.425781 193.355469 343.734375 185.121094 343.734375 Z M 185.121094 363.050781 C 182.707031 363.050781 180.742188 361.085938 180.742188 358.671875 C 180.742188 356.242188 182.707031 354.289062 185.121094 354.289062 C 187.539062 354.289062 189.503906 356.253906 189.503906 358.671875 C 189.503906 361.085938 187.539062 363.050781 185.121094 363.050781 Z M 185.121094 363.050781 " fill-opacity="1" fill-rule="nonzero"/></svg>