<svg xmlns="http://www.w3.org/2000/svg" xmlns:xlink="http://www.w3.org/1999/xlink" width="500" zoomAndPan="magnify" viewBox="0 0 375 374.999991" height="500" preserveAspectRatio="xMidYMid meet" version="1.0"><defs><clipPath id="704cdeb67d"><path d="M 205 101 L 351.421875 101 L 351.421875 173 L 205 173 Z M 205 101 " clip-rule="nonzero"/></clipPath><clipPath id="f02a24a4b8"><path d="M 23.671875 149 L 143 149 L 143 211 L 23.671875 211 Z M 23.671875 149 " clip-rule="nonzero"/></clipPath></defs><path fill="#0c228a" d="M 167.25 179.101562 C 168.8125 178.421875 170.464844 178.074219 172.160156 178.074219 C 177.039062 178.074219 181.449219 180.957031 183.40625 185.425781 L 192.089844 205.277344 C 201.550781 196.917969 204.320312 182.851562 197.984375 171.324219 C 190.640625 157.96875 173.863281 153.097656 160.507812 160.441406 C 147.152344 167.78125 142.28125 184.558594 149.621094 197.917969 C 153.644531 205.234375 160.503906 209.996094 168.078125 211.605469 L 160.925781 195.261719 C 158.21875 189.0625 161.054688 181.8125 167.25 179.101562 Z M 167.25 179.101562 " fill-opacity="1" fill-rule="nonzero"/><path fill="#0c228a" d="M 243.152344 308.9375 C 243.183594 308.9375 243.21875 308.933594 243.25 308.933594 C 256.195312 310.355469 268.96875 296.273438 267.726562 277.042969 C 266.132812 252.296875 259.351562 228.148438 247.820312 206.191406 C 238.613281 188.664062 219.609375 183.46875 209.480469 192.398438 C 204.539062 196.71875 201.761719 202.625 200.890625 208.917969 L 216.941406 199.796875 C 218.789062 198.742188 220.882812 198.1875 222.996094 198.1875 C 227.402344 198.1875 231.492188 200.570312 233.671875 204.398438 C 237.007812 210.277344 234.945312 217.773438 229.070312 221.121094 L 206.761719 233.804688 C 213.367188 247.777344 217.382812 262.847656 218.613281 278.273438 L 184.152344 278.273438 C 177.4375 278.273438 171.535156 282.601562 169.519531 289.007812 L 149.28125 353.410156 C 146.742188 361.488281 151.234375 370.097656 159.3125 372.636719 C 160.84375 373.117188 162.394531 373.34375 163.917969 373.34375 C 170.433594 373.34375 176.480469 369.15625 178.539062 362.605469 L 195.402344 308.9375 Z M 243.152344 308.9375 " fill-opacity="1" fill-rule="nonzero"/><path fill="#0c228a" d="M 231.535156 205.609375 C 228.859375 200.898438 222.867188 199.25 218.15625 201.929688 L 193.960938 215.679688 L 181.15625 186.410156 C 178.984375 181.445312 173.195312 179.179688 168.234375 181.355469 C 163.265625 183.527344 161.003906 189.3125 163.175781 194.28125 L 180.347656 233.53125 C 181.457031 236.066406 183.621094 238.039062 186.246094 238.910156 C 187.25 239.246094 188.292969 239.40625 189.332031 239.40625 C 191.019531 239.40625 192.699219 238.972656 194.191406 238.128906 L 227.855469 218.992188 C 232.5625 216.308594 234.214844 210.320312 231.535156 205.609375 Z M 231.535156 205.609375 " fill-opacity="1" fill-rule="nonzero"/><path fill="#0c228a" d="M 279.90625 208.464844 C 273.257812 243.3125 270.65625 278.730469 272.0625 314.03125 L 209.335938 314.03125 L 209.335938 327.527344 L 212.199219 327.527344 L 212.199219 374.957031 L 225.691406 374.957031 L 225.691406 357.785156 L 275.886719 357.785156 C 276.664062 363.519531 277.515625 369.246094 278.503906 374.957031 L 292.210938 374.957031 C 282.535156 320.714844 282.832031 265.144531 293.160156 210.988281 C 288.742188 210.148438 284.324219 209.304688 279.90625 208.464844 Z M 225.691406 350.421875 L 225.691406 327.527344 L 272.8125 327.527344 C 273.335938 335.171875 274.050781 342.804688 274.960938 350.421875 Z M 225.691406 350.421875 " fill-opacity="1" fill-rule="nonzero"/><path fill="#0c228a" d="M 227.367188 138.105469 C 249.726562 138.105469 267.847656 124.558594 267.847656 107.847656 C 267.847656 91.136719 249.726562 77.589844 227.367188 77.589844 C 205.011719 77.589844 186.886719 91.136719 186.886719 107.847656 C 186.886719 117.632812 193.105469 126.328125 202.75 131.859375 L 192.359375 148.4375 L 186.886719 145.570312 L 189.648438 155.996094 L 199.769531 152.316406 L 195.628906 150.148438 L 206.027344 133.558594 C 212.226562 136.441406 219.535156 138.105469 227.367188 138.105469 Z M 192.613281 108.257812 C 192.613281 94.710938 207.308594 83.722656 225.433594 83.722656 C 243.5625 83.722656 258.257812 94.710938 258.257812 108.257812 C 258.257812 121.808594 243.566406 132.792969 225.433594 132.792969 C 207.304688 132.792969 192.613281 121.808594 192.613281 108.257812 Z M 192.613281 108.257812 " fill-opacity="1" fill-rule="nonzero"/><g clip-path="url(#704cdeb67d)"><path fill="#0c228a" d="M 310.78125 101.304688 C 288.425781 101.304688 270.300781 114.851562 270.300781 131.5625 C 270.300781 135.019531 271.089844 138.335938 272.515625 141.433594 L 211.699219 166.34375 L 208.089844 160.859375 L 205.449219 171.316406 L 216.085938 173 L 213.761719 169.476562 L 274.292969 144.679688 C 280.832031 154.824219 294.714844 161.824219 310.785156 161.824219 C 333.140625 161.824219 351.265625 148.273438 351.265625 131.5625 C 351.265625 114.851562 333.140625 101.304688 310.78125 101.304688 Z M 308.847656 156.507812 C 290.722656 156.507812 276.027344 145.523438 276.027344 131.976562 C 276.027344 118.421875 290.722656 107.441406 308.847656 107.441406 C 326.980469 107.441406 341.671875 118.421875 341.671875 131.976562 C 341.671875 145.523438 326.980469 156.507812 308.847656 156.507812 Z M 308.847656 156.507812 " fill-opacity="1" fill-rule="nonzero"/></g><path fill="#0c228a" d="M 168.671875 83.484375 C 198.605469 81.003906 221.367188 60.855469 219.515625 38.480469 C 217.660156 16.109375 191.894531 -0.0195312 161.960938 2.460938 C 132.027344 4.941406 109.269531 25.085938 111.121094 47.460938 C 112.765625 67.300781 133.210938 82.214844 158.6875 83.613281 L 168.234375 142.5 L 163.484375 143.199219 L 171.847656 150.011719 L 177.867188 141.082031 L 171.875 141.964844 L 162.433594 83.726562 C 164.488281 83.730469 166.570312 83.65625 168.671875 83.484375 Z M 118.832031 47.375 C 117.328125 29.234375 135.785156 12.898438 160.054688 10.886719 C 184.324219 8.875 205.214844 21.953125 206.71875 40.09375 C 208.222656 58.234375 189.765625 74.570312 165.496094 76.582031 C 141.226562 78.59375 120.332031 65.515625 118.832031 47.375 Z M 118.832031 47.375 " fill-opacity="1" fill-rule="nonzero"/><path fill="#0c228a" d="M 149.78125 160.902344 L 152.539062 149.453125 L 146.988281 153.515625 L 128.988281 128.796875 C 135.972656 123.359375 140.273438 115.980469 140.273438 107.847656 C 140.273438 91.136719 122.148438 77.589844 99.792969 77.589844 C 77.433594 77.589844 59.3125 91.136719 59.3125 107.847656 C 59.3125 124.558594 77.433594 138.105469 99.792969 138.105469 C 109.78125 138.105469 118.917969 135.398438 125.980469 130.914062 L 144.019531 155.6875 L 139.121094 159.269531 Z M 69.332031 108.871094 C 69.332031 95.324219 84.023438 84.335938 102.152344 84.335938 C 120.28125 84.335938 134.976562 95.324219 134.976562 108.871094 C 134.976562 122.421875 120.28125 133.40625 102.152344 133.40625 C 84.023438 133.40625 69.332031 122.421875 69.332031 108.871094 Z M 69.332031 108.871094 " fill-opacity="1" fill-rule="nonzero"/><g clip-path="url(#f02a24a4b8)"><path fill="#0c228a" d="M 104.539062 182.8125 L 134.6875 181.855469 L 134.890625 187.925781 L 142.242188 180.03125 L 134.332031 171.304688 L 134.5625 178.179688 L 104.660156 179.128906 C 103.886719 162.925781 86.082031 149.964844 64.214844 149.964844 C 41.859375 149.964844 23.734375 163.511719 23.734375 180.222656 C 23.734375 196.9375 41.859375 210.484375 64.214844 210.484375 C 85.40625 210.480469 102.78125 198.3125 104.539062 182.8125 Z M 66.578125 205.78125 C 48.449219 205.78125 33.757812 194.796875 33.757812 181.246094 C 33.757812 167.699219 48.449219 156.710938 66.578125 156.710938 C 84.707031 156.710938 99.402344 167.699219 99.402344 181.246094 C 99.402344 194.796875 84.707031 205.78125 66.578125 205.78125 Z M 66.578125 205.78125 " fill-opacity="1" fill-rule="nonzero"/></g><path fill="#0c228a" d="M 133.675781 225.992188 L 144.09375 213.585938 L 148.753906 217.484375 L 147.773438 206.742188 L 135.996094 206.816406 L 141.273438 211.226562 L 130.535156 224.015625 C 122.261719 219.375 111.246094 217.449219 99.695312 219.382812 C 77.648438 223.082031 62.011719 239.4375 64.773438 255.917969 C 67.535156 272.398438 87.648438 282.765625 109.699219 279.070312 C 131.75 275.371094 147.382812 259.015625 144.621094 242.535156 C 143.5 235.828125 139.503906 230.136719 133.675781 225.992188 Z M 111.25 274.042969 C 93.375 277.039062 77.066406 268.632812 74.824219 255.269531 C 72.585938 241.90625 85.265625 228.644531 103.140625 225.648438 C 121.019531 222.652344 137.328125 231.058594 139.566406 244.417969 C 141.808594 257.78125 129.128906 271.042969 111.25 274.042969 Z M 111.25 274.042969 " fill-opacity="1" fill-rule="nonzero"/></svg>