<svg xmlns="http://www.w3.org/2000/svg" xmlns:xlink="http://www.w3.org/1999/xlink" width="500" zoomAndPan="magnify" viewBox="0 0 375 374.999991" height="500" preserveAspectRatio="xMidYMid meet" version="1.0"><defs><clipPath id="8cc08514cb"><path d="M 0.703125 0 L 374.203125 0 L 374.203125 375 L 0.703125 375 Z M 0.703125 0 " clip-rule="nonzero"/></clipPath></defs><g clip-path="url(#8cc08514cb)"><path fill="#0c228a" d="M 157.097656 233.351562 C 152.089844 233.351562 147.078125 231.242188 138.324219 226.917969 C 135.160156 225.390625 131.257812 223.4375 126.460938 221.222656 C 126.144531 221.066406 125.828125 220.90625 125.511719 220.75 C 123.925781 230.664062 121.078125 242.527344 115.648438 251.652344 L 158.152344 298.851562 L 198.601562 251.757812 C 193.167969 242.582031 190.269531 230.714844 188.6875 220.75 C 188.371094 220.90625 188.054688 221.066406 187.738281 221.222656 C 182.9375 223.4375 179.035156 225.390625 175.871094 226.917969 C 167.117188 231.242188 162.109375 233.351562 157.097656 233.351562 Z M 146.710938 138.746094 C 148.449219 135.109375 146.867188 130.785156 143.28125 129.042969 C 139.644531 127.304688 135.265625 128.832031 133.527344 132.472656 C 133.527344 132.472656 131.3125 137.324219 120.921875 135.320312 C 116.964844 134.527344 113.117188 137.113281 112.324219 141.066406 C 111.585938 145.023438 114.171875 148.871094 118.125 149.664062 C 139.75 153.882812 146.65625 138.800781 146.710938 138.746094 Z M 182.992188 132.472656 C 181.25 128.832031 176.925781 127.304688 173.289062 129.042969 C 169.648438 130.785156 168.121094 135.109375 169.859375 138.746094 C 169.859375 138.800781 176.820312 153.882812 198.390625 149.664062 C 202.398438 148.871094 204.980469 145.023438 204.191406 141.066406 C 203.398438 137.113281 199.601562 134.527344 195.59375 135.320312 C 185.207031 137.324219 182.992188 132.472656 182.992188 132.472656 Z M 263.414062 216.371094 C 259.351562 216.371094 256.082031 213.101562 256.082031 209.09375 L 256.082031 195.648438 C 256.082031 191.640625 259.351562 188.316406 263.414062 188.316406 C 267.472656 188.316406 270.742188 191.640625 270.742188 195.648438 L 270.742188 209.09375 C 270.742188 213.101562 267.472656 216.371094 263.414062 216.371094 Z M 366.929688 223.648438 L 352.957031 223.648438 L 352.957031 228.660156 C 352.957031 232.71875 349.632812 235.988281 345.625 235.988281 L 243.160156 235.988281 C 239.152344 235.988281 235.832031 232.71875 235.832031 228.660156 L 235.832031 176.082031 C 235.832031 172.023438 239.152344 168.753906 243.160156 168.753906 L 345.625 168.753906 C 349.632812 168.753906 352.957031 172.023438 352.957031 176.082031 L 352.957031 181.09375 L 366.929688 181.09375 C 370.992188 181.09375 374.261719 184.363281 374.261719 188.421875 L 374.261719 216.320312 C 374.261719 220.378906 370.992188 223.648438 366.929688 223.648438 Z M 352.957031 208.988281 L 359.601562 208.988281 L 359.601562 195.753906 L 352.957031 195.753906 Z M 250.492188 221.328125 L 338.296875 221.328125 L 338.296875 183.414062 L 250.492188 183.414062 Z M 175.820312 192.007812 L 138.429688 192.007812 C 134.371094 192.007812 131.101562 188.6875 131.101562 184.679688 C 131.101562 180.617188 134.371094 177.347656 138.429688 177.347656 L 175.820312 177.347656 C 179.828125 177.347656 183.097656 180.617188 183.097656 184.679688 C 183.097656 188.6875 179.828125 192.007812 175.820312 192.007812 Z M 243.792969 360.339844 L 243.792969 323.582031 C 243.792969 319.574219 247.0625 316.304688 251.070312 316.304688 C 255.132812 316.304688 258.402344 319.574219 258.402344 323.582031 L 258.402344 360.339844 L 301.117188 360.339844 L 301.117188 309.976562 C 301.117188 282.1875 278.546875 259.5625 250.753906 259.5625 L 211.203125 259.5625 L 163.847656 314.722656 C 162.476562 316.304688 160.472656 317.253906 158.363281 317.308594 C 158.3125 317.308594 158.3125 317.308594 158.257812 317.308594 C 156.203125 317.308594 154.199219 316.410156 152.828125 314.882812 L 103.097656 259.5625 L 65.761719 259.5625 C 38.023438 259.5625 15.398438 282.1875 15.398438 309.976562 L 15.398438 360.339844 L 58.113281 360.339844 L 58.113281 323.582031 C 58.113281 319.574219 61.382812 316.304688 65.445312 316.304688 C 69.503906 316.304688 72.773438 319.574219 72.773438 323.582031 L 72.773438 360.339844 Z M 111.796875 212.785156 C 81.210938 190.902344 80.15625 157.203125 79.15625 124.453125 C 79.101562 122.765625 79.050781 121.132812 78.996094 119.496094 C 65.179688 83.953125 79.839844 44.71875 80.527344 43.03125 C 81 41.820312 81.792969 40.710938 82.847656 39.921875 C 86.539062 36.96875 92.234375 35.015625 97.507812 33.804688 C 94.605469 29.847656 92.285156 26.632812 92.128906 26.421875 C 90.914062 24.785156 90.492188 22.730469 90.863281 20.726562 C 91.230469 18.773438 92.445312 17.035156 94.132812 15.980469 C 110.480469 5.539062 129.359375 0 148.660156 0 C 177.980469 0 205.613281 12.972656 222.59375 34.648438 C 239.996094 56.902344 245.324219 86.800781 237.570312 118.96875 C 236.359375 153.933594 235.039062 189.898438 202.449219 212.839844 C 203.398438 221.117188 205.824219 235.832031 211.574219 244.953125 L 250.753906 244.953125 C 286.617188 244.953125 315.777344 274.117188 315.777344 309.976562 L 315.777344 367.667969 C 315.777344 371.730469 312.507812 375 308.449219 375 L 8.070312 375 C 4.0625 375 0.738281 371.730469 0.738281 367.667969 L 0.738281 309.976562 C 0.738281 274.117188 29.953125 244.953125 65.761719 244.953125 L 102.621094 244.953125 C 108.371094 235.777344 110.796875 221.011719 111.796875 212.785156 Z M 93.816406 124.136719 C 94.921875 160 95.925781 190.953125 132.628906 207.933594 C 137.585938 210.203125 141.59375 212.207031 144.8125 213.789062 C 151.085938 216.847656 154.9375 218.746094 157.097656 218.746094 C 159.3125 218.746094 163.109375 216.847656 169.4375 213.789062 C 172.65625 212.207031 176.609375 210.203125 181.566406 207.933594 C 219.167969 190.53125 221.488281 158.890625 222.804688 122.082031 C 194.488281 105.101562 178.613281 89.175781 170.492188 79.261719 C 165.484375 84.957031 159.207031 87.644531 154.832031 88.910156 C 150.296875 100.933594 137.957031 110.585938 118.074219 117.703125 C 108.6875 121.027344 99.667969 123.03125 93.816406 124.136719 Z M 93.445312 50.46875 C 90.96875 58.21875 83.53125 85.0625 91.125 109.792969 C 107.632812 106.628906 138.640625 97.558594 141.804688 81.210938 C 142.4375 77.941406 145.074219 75.515625 148.398438 75.304688 C 149.503906 75.199219 159.628906 73.933594 162.6875 63.492188 C 163.53125 60.644531 166.0625 58.589844 169.015625 58.273438 C 171.96875 58.007812 174.816406 59.539062 176.1875 62.175781 C 176.292969 62.332031 187.632812 82.6875 225.179688 106.367188 C 230.03125 75.992188 220.484375 55.6875 211.046875 43.664062 C 196.859375 25.523438 173.5 14.660156 148.660156 14.660156 C 134.738281 14.660156 121.078125 18.035156 108.792969 24.417969 C 111.164062 27.632812 114.011719 31.535156 116.386719 34.542969 C 118.074219 36.652344 118.441406 39.5 117.386719 41.976562 C 116.28125 44.402344 113.960938 46.089844 111.324219 46.355469 C 106.15625 46.828125 97.664062 48.410156 93.445312 50.46875 Z M 93.445312 50.46875 " fill-opacity="1" fill-rule="evenodd"/></g></svg>