<svg xmlns="http://www.w3.org/2000/svg" xmlns:xlink="http://www.w3.org/1999/xlink" width="500" zoomAndPan="magnify" viewBox="0 0 375 374.999991" height="500" preserveAspectRatio="xMidYMid meet" version="1.0"><defs><clipPath id="117ab2742e"><path d="M 98 260 L 279 260 L 279 356.25 L 98 356.25 Z M 98 260 " clip-rule="nonzero"/></clipPath></defs><path fill="#0c228a" d="M 195.558594 70.230469 C 189.222656 70.210938 182.851562 70.207031 176.445312 70.210938 C 173.855469 70.214844 171.539062 68.808594 171.570312 65.972656 C 171.574219 65.398438 171.8125 64.515625 172.289062 63.328125 C 177.433594 50.351562 182.585938 37.378906 187.742188 24.410156 C 188.207031 23.238281 188.480469 22.585938 188.558594 22.445312 C 190.644531 18.746094 196.414062 20.066406 196.539062 24.359375 C 196.554688 24.960938 196.34375 25.8125 195.902344 26.925781 C 191.328125 38.460938 186.746094 49.996094 182.164062 61.527344 C 182.144531 61.570312 182.148438 61.613281 182.175781 61.652344 C 182.203125 61.691406 182.238281 61.710938 182.289062 61.710938 C 188.820312 61.710938 195.371094 61.710938 201.933594 61.710938 C 203.910156 61.710938 205.8125 63.75 205.855469 65.777344 C 205.867188 66.316406 205.675781 67.1875 205.285156 68.390625 C 200.011719 84.664062 194.730469 100.9375 189.445312 117.207031 C 189.089844 118.304688 188.714844 119.085938 188.320312 119.550781 C 185.871094 122.429688 181.050781 120.828125 180.90625 117.058594 C 180.882812 116.375 181.117188 115.273438 181.613281 113.746094 C 186.265625 99.429688 190.957031 84.980469 195.683594 70.398438 C 195.699219 70.359375 195.691406 70.320312 195.664062 70.28125 C 195.640625 70.246094 195.601562 70.226562 195.558594 70.230469 Z M 195.558594 70.230469 " fill-opacity="1" fill-rule="nonzero"/><path fill="#0c228a" d="M 103.417969 83.71875 C 97.964844 78.851562 89.53125 81.617188 84.683594 85.777344 C 78.070312 91.460938 75.457031 99.800781 76.640625 108.34375 C 76.65625 108.425781 76.617188 108.472656 76.535156 108.492188 L 68.929688 110.082031 C 68.828125 110.105469 68.773438 110.0625 68.757812 109.964844 C 67.085938 97.417969 71.816406 85.636719 82.003906 78.050781 C 91.628906 70.882812 104.628906 70.339844 112.242188 80.890625 C 115.992188 86.089844 115.839844 92.417969 114.839844 98.617188 C 114.359375 101.585938 113.875 104.554688 113.390625 107.519531 C 112.300781 114.195312 115.070312 119.023438 119.933594 123.253906 C 120.03125 123.339844 120.039062 123.421875 119.953125 123.507812 L 114.949219 128.511719 C 114.875 128.585938 114.792969 128.585938 114.703125 128.503906 C 110.078125 124.289062 106.277344 119.457031 105.71875 113.027344 C 104.898438 103.609375 112.039062 91.414062 103.417969 83.71875 Z M 103.417969 83.71875 " fill-opacity="1" fill-rule="nonzero"/><path fill="#0c228a" d="M 304.832031 87.820312 C 290.738281 101.476562 276.71875 115.242188 262.472656 128.71875 C 262.390625 128.796875 262.316406 128.800781 262.25 128.734375 L 257.621094 124.105469 C 257.554688 124.039062 257.558594 123.96875 257.632812 123.898438 L 298.363281 81.691406 C 298.441406 81.613281 298.53125 81.570312 298.640625 81.570312 C 298.746094 81.566406 298.835938 81.601562 298.910156 81.679688 L 304.878906 87.617188 C 304.933594 87.667969 304.917969 87.738281 304.832031 87.820312 Z M 304.832031 87.820312 " fill-opacity="1" fill-rule="nonzero"/><path fill="#0c228a" d="M 135.964844 138.625 C 135.964844 139.011719 135.925781 139.394531 135.851562 139.773438 C 135.773438 140.15625 135.660156 140.523438 135.515625 140.882812 C 135.367188 141.238281 135.183594 141.578125 134.96875 141.902344 C 134.753906 142.222656 134.507812 142.523438 134.234375 142.796875 C 133.960938 143.070312 133.664062 143.316406 133.339844 143.53125 C 133.019531 143.746094 132.675781 143.925781 132.320312 144.074219 C 131.960938 144.222656 131.59375 144.335938 131.210938 144.410156 C 130.832031 144.488281 130.449219 144.523438 130.0625 144.523438 C 129.671875 144.523438 129.289062 144.488281 128.910156 144.410156 C 128.53125 144.335938 128.160156 144.222656 127.800781 144.074219 C 127.445312 143.925781 127.105469 143.746094 126.78125 143.53125 C 126.460938 143.316406 126.160156 143.070312 125.886719 142.796875 C 125.613281 142.523438 125.367188 142.222656 125.152344 141.902344 C 124.9375 141.578125 124.757812 141.238281 124.609375 140.882812 C 124.460938 140.523438 124.347656 140.15625 124.273438 139.773438 C 124.195312 139.394531 124.160156 139.011719 124.160156 138.625 C 124.160156 138.234375 124.195312 137.851562 124.273438 137.472656 C 124.347656 137.089844 124.460938 136.722656 124.609375 136.363281 C 124.757812 136.007812 124.9375 135.667969 125.152344 135.34375 C 125.367188 135.023438 125.613281 134.722656 125.886719 134.449219 C 126.160156 134.175781 126.460938 133.929688 126.78125 133.714844 C 127.105469 133.5 127.445312 133.320312 127.800781 133.171875 C 128.160156 133.023438 128.53125 132.910156 128.910156 132.835938 C 129.289062 132.757812 129.671875 132.722656 130.0625 132.722656 C 130.449219 132.722656 130.832031 132.757812 131.210938 132.835938 C 131.59375 132.910156 131.960938 133.023438 132.320312 133.171875 C 132.675781 133.320312 133.019531 133.5 133.339844 133.714844 C 133.664062 133.929688 133.960938 134.175781 134.234375 134.449219 C 134.507812 134.722656 134.753906 135.023438 134.96875 135.34375 C 135.183594 135.667969 135.367188 136.007812 135.515625 136.363281 C 135.660156 136.722656 135.773438 137.089844 135.851562 137.472656 C 135.925781 137.851562 135.964844 138.234375 135.964844 138.625 Z M 135.964844 138.625 " fill-opacity="1" fill-rule="nonzero"/><path fill="#0c228a" d="M 253.679688 138.679688 C 253.679688 139.066406 253.640625 139.449219 253.566406 139.828125 C 253.492188 140.210938 253.378906 140.578125 253.230469 140.9375 C 253.082031 141.296875 252.902344 141.636719 252.683594 141.957031 C 252.46875 142.28125 252.226562 142.578125 251.953125 142.851562 C 251.675781 143.125 251.378906 143.371094 251.058594 143.585938 C 250.734375 143.800781 250.394531 143.984375 250.035156 144.132812 C 249.679688 144.28125 249.308594 144.390625 248.929688 144.46875 C 248.550781 144.542969 248.164062 144.582031 247.777344 144.582031 C 247.390625 144.582031 247.007812 144.542969 246.625 144.46875 C 246.246094 144.390625 245.878906 144.28125 245.519531 144.132812 C 245.160156 143.984375 244.820312 143.800781 244.5 143.585938 C 244.175781 143.371094 243.878906 143.125 243.605469 142.851562 C 243.332031 142.578125 243.085938 142.28125 242.871094 141.957031 C 242.65625 141.636719 242.472656 141.296875 242.324219 140.9375 C 242.175781 140.578125 242.066406 140.210938 241.988281 139.828125 C 241.914062 139.449219 241.875 139.066406 241.875 138.679688 C 241.875 138.292969 241.914062 137.90625 241.988281 137.527344 C 242.066406 137.148438 242.175781 136.777344 242.324219 136.421875 C 242.472656 136.0625 242.65625 135.722656 242.871094 135.398438 C 243.085938 135.078125 243.332031 134.777344 243.605469 134.503906 C 243.878906 134.230469 244.175781 133.988281 244.5 133.769531 C 244.820312 133.554688 245.160156 133.375 245.519531 133.226562 C 245.878906 133.078125 246.246094 132.964844 246.625 132.890625 C 247.007812 132.8125 247.390625 132.777344 247.777344 132.777344 C 248.164062 132.777344 248.550781 132.8125 248.929688 132.890625 C 249.308594 132.964844 249.679688 133.078125 250.035156 133.226562 C 250.394531 133.375 250.734375 133.554688 251.058594 133.769531 C 251.378906 133.988281 251.675781 134.230469 251.953125 134.503906 C 252.226562 134.777344 252.46875 135.078125 252.683594 135.398438 C 252.902344 135.722656 253.082031 136.0625 253.230469 136.421875 C 253.378906 136.777344 253.492188 137.148438 253.566406 137.527344 C 253.640625 137.90625 253.679688 138.292969 253.679688 138.679688 Z M 253.679688 138.679688 " fill-opacity="1" fill-rule="nonzero"/><path fill="#0c228a" d="M 240.167969 201.25 C 240.167969 202.9375 240.085938 204.617188 239.921875 206.296875 C 239.753906 207.972656 239.507812 209.636719 239.179688 211.289062 C 238.851562 212.941406 238.441406 214.574219 237.953125 216.1875 C 237.464844 217.800781 236.894531 219.386719 236.25 220.941406 C 235.605469 222.5 234.886719 224.019531 234.09375 225.507812 C 233.296875 226.992188 232.433594 228.4375 231.496094 229.839844 C 230.558594 231.238281 229.558594 232.59375 228.488281 233.894531 C 227.417969 235.199219 226.289062 236.445312 225.097656 237.636719 C 223.90625 238.828125 222.65625 239.957031 221.355469 241.027344 C 220.050781 242.097656 218.699219 243.097656 217.300781 244.035156 C 215.898438 244.972656 214.453125 245.835938 212.96875 246.632812 C 211.480469 247.425781 209.960938 248.144531 208.402344 248.789062 C 206.847656 249.4375 205.261719 250.003906 203.648438 250.492188 C 202.035156 250.980469 200.402344 251.390625 198.75 251.71875 C 197.097656 252.046875 195.433594 252.292969 193.753906 252.460938 C 192.078125 252.625 190.398438 252.707031 188.710938 252.707031 C 187.027344 252.707031 185.34375 252.625 183.667969 252.460938 C 181.992188 252.292969 180.324219 252.046875 178.671875 251.71875 C 177.019531 251.390625 175.386719 250.980469 173.773438 250.492188 C 172.160156 250.003906 170.578125 249.4375 169.019531 248.789062 C 167.464844 248.144531 165.941406 247.425781 164.457031 246.632812 C 162.96875 245.835938 161.523438 244.972656 160.125 244.035156 C 158.722656 243.097656 157.371094 242.097656 156.066406 241.027344 C 154.765625 239.957031 153.519531 238.828125 152.328125 237.636719 C 151.136719 236.445312 150.003906 235.199219 148.933594 233.894531 C 147.867188 232.59375 146.863281 231.238281 145.925781 229.839844 C 144.992188 228.4375 144.125 226.992188 143.332031 225.507812 C 142.535156 224.019531 141.816406 222.5 141.171875 220.941406 C 140.527344 219.386719 139.960938 217.800781 139.472656 216.1875 C 138.980469 214.574219 138.574219 212.941406 138.242188 211.289062 C 137.914062 209.636719 137.667969 207.972656 137.503906 206.296875 C 137.339844 204.617188 137.253906 202.9375 137.253906 201.25 C 137.253906 199.566406 137.339844 197.886719 137.503906 196.207031 C 137.667969 194.53125 137.914062 192.867188 138.242188 191.210938 C 138.574219 189.558594 138.980469 187.925781 139.472656 186.3125 C 139.960938 184.703125 140.527344 183.117188 141.171875 181.558594 C 141.816406 180.003906 142.535156 178.480469 143.332031 176.996094 C 144.125 175.507812 144.992188 174.066406 145.925781 172.664062 C 146.863281 171.261719 147.867188 169.910156 148.933594 168.609375 C 150.003906 167.304688 151.136719 166.058594 152.328125 164.867188 C 153.519531 163.675781 154.765625 162.542969 156.066406 161.476562 C 157.371094 160.40625 158.722656 159.402344 160.125 158.46875 C 161.523438 157.53125 162.96875 156.664062 164.457031 155.871094 C 165.941406 155.078125 167.464844 154.355469 169.019531 153.710938 C 170.578125 153.066406 172.160156 152.5 173.773438 152.011719 C 175.386719 151.523438 177.019531 151.113281 178.671875 150.785156 C 180.324219 150.453125 181.992188 150.207031 183.667969 150.042969 C 185.34375 149.878906 187.027344 149.796875 188.710938 149.796875 C 190.398438 149.796875 192.078125 149.878906 193.753906 150.042969 C 195.433594 150.207031 197.097656 150.453125 198.75 150.785156 C 200.402344 151.113281 202.035156 151.523438 203.648438 152.011719 C 205.261719 152.5 206.847656 153.066406 208.402344 153.710938 C 209.960938 154.355469 211.480469 155.078125 212.96875 155.871094 C 214.453125 156.664062 215.898438 157.53125 217.300781 158.46875 C 218.699219 159.402344 220.050781 160.40625 221.355469 161.476562 C 222.65625 162.542969 223.90625 163.675781 225.097656 164.867188 C 226.289062 166.058594 227.417969 167.304688 228.488281 168.609375 C 229.558594 169.910156 230.558594 171.261719 231.496094 172.664062 C 232.433594 174.066406 233.296875 175.507812 234.09375 176.996094 C 234.886719 178.480469 235.605469 180.003906 236.25 181.558594 C 236.894531 183.117188 237.464844 184.703125 237.953125 186.3125 C 238.441406 187.925781 238.851562 189.558594 239.179688 191.210938 C 239.507812 192.867188 239.753906 194.53125 239.921875 196.207031 C 240.085938 197.886719 240.167969 199.566406 240.167969 201.25 Z M 231.648438 201.25 C 231.648438 199.84375 231.578125 198.441406 231.441406 197.042969 C 231.304688 195.644531 231.097656 194.253906 230.824219 192.875 C 230.550781 191.496094 230.207031 190.132812 229.800781 188.789062 C 229.390625 187.441406 228.917969 186.121094 228.378906 184.820312 C 227.84375 183.519531 227.242188 182.25 226.578125 181.011719 C 225.914062 179.769531 225.195312 178.566406 224.414062 177.398438 C 223.632812 176.226562 222.792969 175.097656 221.902344 174.011719 C 221.011719 172.925781 220.066406 171.886719 219.074219 170.890625 C 218.078125 169.894531 217.039062 168.953125 215.949219 168.0625 C 214.863281 167.167969 213.734375 166.332031 212.566406 165.550781 C 211.398438 164.769531 210.191406 164.046875 208.953125 163.382812 C 207.710938 162.722656 206.441406 162.121094 205.144531 161.582031 C 203.84375 161.042969 202.519531 160.570312 201.175781 160.164062 C 199.828125 159.753906 198.46875 159.414062 197.089844 159.140625 C 195.710938 158.863281 194.320312 158.660156 192.921875 158.519531 C 191.519531 158.382812 190.117188 158.316406 188.710938 158.316406 C 187.304688 158.316406 185.902344 158.382812 184.503906 158.519531 C 183.105469 158.660156 181.714844 158.863281 180.335938 159.140625 C 178.957031 159.414062 177.59375 159.753906 176.246094 160.164062 C 174.902344 160.570312 173.578125 161.042969 172.28125 161.582031 C 170.980469 162.121094 169.710938 162.722656 168.472656 163.382812 C 167.230469 164.046875 166.027344 164.769531 164.855469 165.550781 C 163.6875 166.332031 162.558594 167.167969 161.472656 168.0625 C 160.386719 168.953125 159.34375 169.894531 158.351562 170.890625 C 157.355469 171.886719 156.414062 172.925781 155.519531 174.011719 C 154.628906 175.097656 153.792969 176.226562 153.011719 177.398438 C 152.230469 178.566406 151.507812 179.769531 150.84375 181.011719 C 150.183594 182.25 149.582031 183.519531 149.042969 184.820312 C 148.503906 186.121094 148.03125 187.441406 147.625 188.789062 C 147.214844 190.132812 146.875 191.496094 146.601562 192.875 C 146.324219 194.253906 146.121094 195.644531 145.980469 197.042969 C 145.84375 198.441406 145.773438 199.84375 145.773438 201.25 C 145.773438 202.65625 145.84375 204.058594 145.980469 205.460938 C 146.121094 206.859375 146.324219 208.25 146.601562 209.628906 C 146.875 211.007812 147.214844 212.371094 147.625 213.714844 C 148.03125 215.0625 148.503906 216.382812 149.042969 217.683594 C 149.582031 218.980469 150.183594 220.25 150.84375 221.492188 C 151.507812 222.730469 152.230469 223.9375 153.011719 225.105469 C 153.792969 226.273438 154.628906 227.402344 155.519531 228.492188 C 156.414062 229.578125 157.355469 230.617188 158.351562 231.613281 C 159.34375 232.605469 160.386719 233.550781 161.472656 234.441406 C 162.558594 235.335938 163.6875 236.171875 164.855469 236.953125 C 166.027344 237.734375 167.230469 238.457031 168.472656 239.117188 C 169.710938 239.78125 170.980469 240.382812 172.28125 240.917969 C 173.578125 241.457031 174.902344 241.929688 176.246094 242.339844 C 177.59375 242.746094 178.957031 243.089844 180.335938 243.363281 C 181.714844 243.636719 183.105469 243.84375 184.503906 243.980469 C 185.902344 244.121094 187.304688 244.1875 188.710938 244.1875 C 190.117188 244.1875 191.519531 244.121094 192.921875 243.980469 C 194.320312 243.84375 195.710938 243.636719 197.089844 243.363281 C 198.46875 243.089844 199.828125 242.746094 201.175781 242.339844 C 202.519531 241.929688 203.84375 241.457031 205.144531 240.917969 C 206.441406 240.382812 207.710938 239.78125 208.953125 239.117188 C 210.191406 238.457031 211.398438 237.734375 212.566406 236.953125 C 213.734375 236.171875 214.863281 235.335938 215.949219 234.441406 C 217.039062 233.550781 218.078125 232.605469 219.074219 231.613281 C 220.066406 230.617188 221.011719 229.578125 221.902344 228.492188 C 222.792969 227.402344 223.632812 226.273438 224.414062 225.105469 C 225.195312 223.9375 225.914062 222.730469 226.578125 221.492188 C 227.242188 220.25 227.84375 218.980469 228.378906 217.683594 C 228.917969 216.382812 229.390625 215.0625 229.800781 213.714844 C 230.207031 212.371094 230.550781 211.007812 230.824219 209.628906 C 231.097656 208.25 231.304688 206.859375 231.441406 205.460938 C 231.578125 204.058594 231.648438 202.65625 231.648438 201.25 Z M 231.648438 201.25 " fill-opacity="1" fill-rule="nonzero"/><path fill="#0c228a" d="M 67.8125 163.402344 C 69.410156 164.945312 71.066406 166.5 70.734375 168.789062 C 70.308594 171.75 67.050781 173.496094 64.417969 171.949219 C 64.074219 171.746094 63.496094 171.195312 62.683594 170.292969 C 53.089844 159.664062 35.582031 165.980469 34.777344 180.234375 C 34.660156 182.347656 34.324219 183.78125 32.449219 184.75 C 31.054688 185.472656 29.15625 185.207031 27.542969 185.519531 C 19.34375 187.109375 13.59375 194.796875 14.597656 203.082031 C 15.542969 210.84375 21.875 216.824219 29.691406 217.238281 C 32.957031 217.410156 34.613281 218.542969 34.761719 222 C 35.429688 237.550781 54.953125 243.152344 64 230.535156 C 67.429688 225.757812 74.527344 230.546875 70.613281 235.902344 C 57.84375 253.351562 30.304688 247.039062 26.597656 225.667969 C 26.578125 225.535156 26.5 225.460938 26.371094 225.4375 C 8.972656 222.21875 0.0351562 202.328125 10.242188 187.488281 C 14.097656 181.882812 19.488281 178.398438 26.417969 177.035156 C 26.503906 177.019531 26.550781 176.96875 26.566406 176.890625 C 30.085938 157.5 53.515625 149.613281 67.8125 163.402344 Z M 67.8125 163.402344 " fill-opacity="1" fill-rule="nonzero"/><path fill="#0c228a" d="M 312.285156 171.898438 C 309.003906 173.816406 304.914062 170.769531 306.046875 167.074219 C 306.261719 166.378906 306.742188 165.609375 307.492188 164.769531 C 321.289062 149.277344 346.40625 156.648438 350.066406 176.894531 C 350.085938 176.992188 350.144531 177.050781 350.242188 177.070312 C 365.863281 179.769531 374.976562 196.441406 368.664062 210.910156 C 365.289062 218.644531 358.640625 223.84375 350.222656 225.46875 C 350.140625 225.480469 350.089844 225.53125 350.074219 225.613281 C 346.222656 246.4375 320.277344 253.300781 306.796875 236.90625 C 306.335938 236.347656 305.917969 235.761719 305.535156 235.15625 C 303.019531 231.160156 307.710938 226.808594 311.464844 229.332031 C 311.835938 229.578125 312.335938 230.128906 312.964844 230.972656 C 322.03125 243.128906 341.40625 237.214844 341.890625 221.945312 C 341.957031 219.910156 342.652344 218.324219 344.632812 217.566406 C 345.042969 217.410156 345.777344 217.304688 346.84375 217.246094 C 359.011719 216.5625 366.453125 203.019531 359.585938 192.554688 C 356.804688 188.320312 351.9375 185.347656 346.707031 185.28125 C 344.011719 185.246094 342.03125 183.765625 341.882812 181.03125 C 341.792969 179.46875 341.667969 178.347656 341.507812 177.664062 C 338.457031 164.800781 322.550781 160.367188 313.707031 170.582031 C 313.144531 171.234375 312.667969 171.671875 312.285156 171.898438 Z M 312.285156 171.898438 " fill-opacity="1" fill-rule="nonzero"/><path fill="#0c228a" d="M 62.546875 179.722656 L 105.613281 190.378906 C 105.878906 190.445312 106.136719 190.535156 106.386719 190.652344 C 106.636719 190.769531 106.871094 190.910156 107.09375 191.074219 C 107.316406 191.238281 107.519531 191.421875 107.703125 191.625 C 107.890625 191.828125 108.054688 192.046875 108.195312 192.285156 C 108.339844 192.519531 108.457031 192.765625 108.550781 193.027344 C 108.644531 193.285156 108.710938 193.550781 108.75 193.824219 C 108.792969 194.09375 108.808594 194.371094 108.792969 194.644531 C 108.78125 194.917969 108.742188 195.191406 108.675781 195.457031 L 108.644531 195.585938 C 108.578125 195.851562 108.488281 196.109375 108.371094 196.359375 C 108.253906 196.609375 108.113281 196.84375 107.949219 197.066406 C 107.785156 197.289062 107.601562 197.492188 107.398438 197.675781 C 107.195312 197.863281 106.976562 198.027344 106.738281 198.167969 C 106.503906 198.3125 106.257812 198.429688 105.996094 198.523438 C 105.738281 198.617188 105.472656 198.683594 105.199219 198.726562 C 104.929688 198.765625 104.65625 198.78125 104.378906 198.765625 C 104.105469 198.753906 103.832031 198.714844 103.566406 198.648438 L 60.5 187.992188 C 60.230469 187.925781 59.972656 187.832031 59.726562 187.714844 C 59.476562 187.597656 59.238281 187.460938 59.019531 187.296875 C 58.796875 187.132812 58.59375 186.949219 58.40625 186.746094 C 58.222656 186.542969 58.058594 186.320312 57.914062 186.085938 C 57.773438 185.851562 57.65625 185.601562 57.5625 185.34375 C 57.46875 185.085938 57.402344 184.820312 57.359375 184.546875 C 57.320312 184.273438 57.304688 184 57.316406 183.726562 C 57.332031 183.449219 57.371094 183.179688 57.4375 182.914062 L 57.46875 182.785156 C 57.535156 182.519531 57.625 182.257812 57.742188 182.011719 C 57.859375 181.761719 58 181.527344 58.164062 181.304688 C 58.324219 181.082031 58.507812 180.878906 58.714844 180.691406 C 58.917969 180.507812 59.136719 180.34375 59.371094 180.203125 C 59.609375 180.058594 59.855469 179.941406 60.113281 179.847656 C 60.375 179.753906 60.640625 179.6875 60.910156 179.644531 C 61.183594 179.605469 61.457031 179.589844 61.734375 179.601562 C 62.007812 179.617188 62.277344 179.65625 62.546875 179.722656 Z M 62.546875 179.722656 " fill-opacity="1" fill-rule="nonzero"/><path fill="#0c228a" d="M 271.039062 190.378906 L 314.109375 179.722656 C 314.375 179.65625 314.648438 179.613281 314.921875 179.601562 C 315.199219 179.589844 315.472656 179.605469 315.742188 179.644531 C 316.015625 179.6875 316.28125 179.753906 316.539062 179.847656 C 316.800781 179.941406 317.046875 180.058594 317.28125 180.199219 C 317.519531 180.34375 317.738281 180.507812 317.941406 180.691406 C 318.144531 180.878906 318.328125 181.082031 318.492188 181.304688 C 318.65625 181.523438 318.796875 181.761719 318.914062 182.007812 C 319.03125 182.257812 319.121094 182.515625 319.1875 182.785156 L 319.21875 182.910156 C 319.285156 183.179688 319.324219 183.449219 319.335938 183.726562 C 319.351562 184 319.335938 184.273438 319.292969 184.546875 C 319.253906 184.820312 319.1875 185.085938 319.09375 185.34375 C 319 185.601562 318.882812 185.851562 318.738281 186.085938 C 318.597656 186.320312 318.433594 186.542969 318.246094 186.746094 C 318.0625 186.949219 317.859375 187.132812 317.636719 187.296875 C 317.414062 187.457031 317.179688 187.597656 316.929688 187.714844 C 316.679688 187.832031 316.421875 187.925781 316.15625 187.992188 L 273.085938 198.648438 C 272.816406 198.714844 272.546875 198.753906 272.269531 198.769531 C 271.996094 198.78125 271.722656 198.765625 271.449219 198.726562 C 271.175781 198.683594 270.910156 198.617188 270.652344 198.523438 C 270.394531 198.429688 270.144531 198.3125 269.910156 198.167969 C 269.675781 198.027344 269.453125 197.863281 269.25 197.679688 C 269.046875 197.492188 268.863281 197.289062 268.699219 197.066406 C 268.539062 196.84375 268.398438 196.609375 268.28125 196.359375 C 268.164062 196.113281 268.070312 195.851562 268.003906 195.585938 L 267.972656 195.457031 C 267.90625 195.191406 267.867188 194.921875 267.855469 194.644531 C 267.84375 194.371094 267.855469 194.097656 267.898438 193.824219 C 267.941406 193.550781 268.007812 193.285156 268.101562 193.027344 C 268.195312 192.769531 268.3125 192.519531 268.453125 192.285156 C 268.597656 192.050781 268.761719 191.828125 268.945312 191.625 C 269.132812 191.421875 269.335938 191.238281 269.554688 191.074219 C 269.777344 190.910156 270.011719 190.773438 270.261719 190.65625 C 270.511719 190.539062 270.769531 190.445312 271.039062 190.378906 Z M 271.039062 190.378906 " fill-opacity="1" fill-rule="nonzero"/><path fill="#0c228a" d="M 60.507812 214.546875 L 103.542969 203.816406 C 103.808594 203.75 104.082031 203.710938 104.355469 203.699219 C 104.632812 203.683594 104.90625 203.699219 105.175781 203.738281 C 105.449219 203.78125 105.714844 203.847656 105.976562 203.941406 C 106.234375 204.03125 106.480469 204.148438 106.71875 204.292969 C 106.953125 204.433594 107.175781 204.597656 107.378906 204.78125 C 107.582031 204.96875 107.765625 205.171875 107.929688 205.394531 C 108.09375 205.613281 108.234375 205.851562 108.351562 206.097656 C 108.46875 206.347656 108.5625 206.605469 108.628906 206.875 L 108.660156 206.996094 C 108.726562 207.261719 108.765625 207.535156 108.78125 207.808594 C 108.792969 208.085938 108.777344 208.359375 108.738281 208.632812 C 108.699219 208.90625 108.628906 209.171875 108.539062 209.429688 C 108.445312 209.6875 108.328125 209.9375 108.183594 210.171875 C 108.042969 210.410156 107.878906 210.628906 107.695312 210.832031 C 107.507812 211.039062 107.304688 211.222656 107.082031 211.386719 C 106.863281 211.550781 106.625 211.691406 106.378906 211.808594 C 106.128906 211.925781 105.871094 212.015625 105.601562 212.082031 L 62.570312 222.8125 C 62.300781 222.878906 62.03125 222.917969 61.757812 222.933594 C 61.480469 222.945312 61.207031 222.933594 60.933594 222.890625 C 60.660156 222.851562 60.394531 222.785156 60.136719 222.691406 C 59.878906 222.597656 59.628906 222.480469 59.394531 222.339844 C 59.15625 222.195312 58.9375 222.03125 58.734375 221.847656 C 58.527344 221.660156 58.34375 221.457031 58.179688 221.238281 C 58.015625 221.015625 57.875 220.78125 57.757812 220.53125 C 57.640625 220.28125 57.550781 220.023438 57.484375 219.757812 L 57.453125 219.632812 C 57.386719 219.367188 57.34375 219.09375 57.332031 218.820312 C 57.320312 218.542969 57.332031 218.269531 57.375 218 C 57.414062 217.726562 57.480469 217.460938 57.574219 217.199219 C 57.667969 216.941406 57.785156 216.691406 57.925781 216.457031 C 58.070312 216.222656 58.234375 216 58.417969 215.796875 C 58.601562 215.59375 58.804688 215.410156 59.027344 215.246094 C 59.25 215.082031 59.484375 214.941406 59.734375 214.824219 C 59.984375 214.707031 60.242188 214.613281 60.507812 214.546875 Z M 60.507812 214.546875 " fill-opacity="1" fill-rule="nonzero"/><path fill="#0c228a" d="M 273.113281 203.820312 L 316.144531 214.550781 C 316.414062 214.617188 316.671875 214.707031 316.921875 214.824219 C 317.171875 214.941406 317.40625 215.082031 317.628906 215.246094 C 317.847656 215.410156 318.050781 215.59375 318.238281 215.800781 C 318.421875 216.003906 318.585938 216.222656 318.726562 216.460938 C 318.871094 216.695312 318.988281 216.945312 319.082031 217.203125 C 319.171875 217.460938 319.242188 217.726562 319.28125 218 C 319.320312 218.273438 319.335938 218.546875 319.324219 218.824219 C 319.308594 219.097656 319.269531 219.367188 319.203125 219.636719 L 319.171875 219.757812 C 319.105469 220.027344 319.011719 220.285156 318.894531 220.535156 C 318.777344 220.78125 318.636719 221.019531 318.472656 221.238281 C 318.308594 221.460938 318.125 221.664062 317.921875 221.851562 C 317.71875 222.035156 317.496094 222.199219 317.261719 222.339844 C 317.027344 222.484375 316.777344 222.601562 316.519531 222.691406 C 316.257812 222.785156 315.992188 222.851562 315.71875 222.894531 C 315.449219 222.933594 315.175781 222.949219 314.898438 222.933594 C 314.625 222.921875 314.351562 222.882812 314.085938 222.816406 L 271.050781 212.085938 C 270.785156 212.019531 270.527344 211.925781 270.277344 211.808594 C 270.027344 211.691406 269.792969 211.550781 269.570312 211.386719 C 269.351562 211.222656 269.144531 211.039062 268.960938 210.835938 C 268.777344 210.632812 268.613281 210.410156 268.46875 210.175781 C 268.328125 209.9375 268.210938 209.691406 268.117188 209.433594 C 268.023438 209.171875 267.957031 208.90625 267.917969 208.632812 C 267.875 208.363281 267.863281 208.089844 267.875 207.8125 C 267.890625 207.539062 267.929688 207.265625 267.996094 207 L 268.027344 206.875 C 268.09375 206.609375 268.183594 206.351562 268.300781 206.101562 C 268.417969 205.851562 268.5625 205.617188 268.722656 205.394531 C 268.886719 205.175781 269.074219 204.96875 269.277344 204.785156 C 269.480469 204.601562 269.699219 204.4375 269.9375 204.292969 C 270.171875 204.152344 270.421875 204.035156 270.679688 203.941406 C 270.9375 203.847656 271.207031 203.78125 271.476562 203.742188 C 271.75 203.699219 272.023438 203.6875 272.300781 203.699219 C 272.574219 203.714844 272.847656 203.753906 273.113281 203.820312 Z M 273.113281 203.820312 " fill-opacity="1" fill-rule="nonzero"/><g clip-path="url(#117ab2742e)"><path fill="#0c228a" d="M 100.34375 355.4375 C 98.960938 354.417969 98.59375 353.261719 98.59375 351.464844 C 98.589844 338.613281 98.589844 325.769531 98.589844 312.921875 C 98.589844 310.722656 98.632812 309.046875 98.71875 307.890625 C 100.847656 279.140625 126.152344 258.246094 154.703125 260.96875 C 159.433594 261.421875 163.816406 263.820312 168.238281 265.203125 C 181.816406 269.4375 195.398438 269.457031 208.988281 265.265625 C 212.070312 264.3125 215.765625 262.53125 218.785156 261.777344 C 222.328125 260.894531 226.09375 260.558594 230.085938 260.773438 C 257.769531 262.253906 278.800781 284.28125 278.820312 312.054688 C 278.828125 325.105469 278.832031 338.152344 278.828125 351.203125 C 278.828125 354.332031 277.476562 356.25 274.152344 356.25 C 216.871094 356.25 159.585938 356.25 102.304688 356.25 C 101.726562 356.25 101.074219 355.980469 100.34375 355.4375 Z M 137.585938 310.417969 C 138.957031 306.933594 143.953125 306.839844 145.410156 310.339844 C 145.640625 310.894531 145.757812 311.71875 145.757812 312.820312 C 145.757812 324.433594 145.757812 336.039062 145.757812 347.625 C 145.757812 347.707031 145.800781 347.75 145.886719 347.75 L 231.53125 347.75 C 231.613281 347.75 231.65625 347.707031 231.65625 347.625 C 231.664062 336.203125 231.660156 324.78125 231.652344 313.363281 C 231.652344 312 231.773438 311.007812 232.015625 310.386719 C 233.355469 306.917969 238.382812 306.863281 239.816406 310.351562 C 240.050781 310.914062 240.164062 311.765625 240.164062 312.902344 C 240.15625 324.46875 240.15625 336.039062 240.167969 347.609375 C 240.167969 347.703125 240.210938 347.746094 240.285156 347.75 L 270.199219 347.75 C 270.277344 347.746094 270.316406 347.703125 270.316406 347.609375 C 270.332031 336.03125 270.332031 324.453125 270.316406 312.878906 C 270.316406 310.664062 270.261719 308.984375 270.160156 307.84375 C 268.148438 285.140625 248.777344 268.648438 226.316406 269.238281 C 224.976562 269.273438 223.621094 269.429688 222.253906 269.699219 C 219.195312 270.304688 216.117188 271.84375 213.046875 272.886719 C 195.777344 278.757812 177.121094 278.132812 160.277344 271.363281 C 156.128906 269.695312 152.84375 269.078125 148.328125 269.257812 C 125.464844 270.167969 107.214844 288.304688 107.097656 311.410156 C 107.066406 317.726562 107.074219 329.800781 107.113281 347.636719 C 107.113281 347.714844 107.148438 347.753906 107.21875 347.753906 L 137.132812 347.75 C 137.214844 347.75 137.253906 347.710938 137.253906 347.628906 C 137.261719 336.027344 137.261719 324.429688 137.253906 312.832031 C 137.253906 311.789062 137.363281 310.984375 137.585938 310.417969 Z M 137.585938 310.417969 " fill-opacity="1" fill-rule="nonzero"/></g></svg>