<svg xmlns="http://www.w3.org/2000/svg" xmlns:xlink="http://www.w3.org/1999/xlink" width="500" zoomAndPan="magnify" viewBox="0 0 375 374.999991" height="500" preserveAspectRatio="xMidYMid meet" version="1.0"><defs><clipPath id="ea2f53bfe8"><path d="M 96.09375 167 L 163 167 L 163 241 L 96.09375 241 Z M 96.09375 167 " clip-rule="nonzero"/></clipPath></defs><path fill="#0c228a" d="M 172.699219 208.425781 C 168.277344 206.820312 163.269531 204.492188 157.378906 201.3125 C 156.601562 200.886719 155.808594 200.453125 155.003906 200.003906 L 157.546875 218.742188 C 161.535156 220.410156 164.46875 224.136719 164.957031 228.6875 C 165.675781 235.371094 160.816406 241.386719 154.136719 242.101562 L 153.980469 242.121094 C 151.234375 242.398438 141.460938 243.308594 131.03125 243.3125 L 131.027344 243.3125 C 126.003906 243.308594 121.699219 243.101562 117.878906 242.683594 C 116.832031 242.5625 115.761719 242.425781 114.679688 242.261719 L 114.679688 360.253906 C 114.679688 368.417969 121.296875 375.03125 129.453125 375.03125 C 137.613281 375.03125 144.230469 368.417969 144.230469 360.253906 L 144.230469 252.378906 L 149.769531 252.378906 L 149.769531 360.253906 C 149.769531 368.417969 156.386719 375.03125 164.542969 375.03125 C 172.703125 375.03125 179.320312 368.417969 179.320312 360.253906 L 179.320312 210.375 C 177.316406 209.945312 175.164062 209.308594 172.699219 208.425781 Z M 172.699219 208.425781 " fill-opacity="1" fill-rule="nonzero"/><path fill="#0c228a" d="M 142.125 163.269531 L 142.457031 161.953125 L 151.539062 161.953125 L 153.808594 170.910156 C 164.855469 177.882812 172.195312 181.726562 176.9375 183.847656 C 177.308594 184.46875 177.667969 185.089844 178.007812 185.703125 C 178.355469 186.328125 178.675781 186.945312 178.976562 187.546875 C 169.378906 183.835938 151.296875 173.476562 122.964844 153.105469 C 118.671875 150.027344 112.699219 151.011719 109.621094 155.304688 C 106.546875 159.59375 107.53125 165.5625 111.820312 168.640625 C 131.933594 183.0625 147.085938 192.753906 158.628906 199 C 164.414062 202.121094 169.292969 204.390625 173.589844 205.953125 C 177.898438 207.496094 181.585938 208.421875 185.476562 208.453125 C 187.308594 208.453125 189.226562 208.222656 191.203125 207.53125 C 192.828125 206.96875 194.46875 206.011719 195.867188 204.753906 C 196.167969 204.5 196.464844 204.230469 196.738281 203.933594 C 196.832031 203.832031 196.902344 203.726562 196.988281 203.625 C 197.128906 203.460938 197.269531 203.296875 197.398438 203.125 C 199.789062 200.078125 200.457031 196.558594 200.4375 193.882812 C 200.417969 192.988281 200.34375 192.136719 200.242188 191.304688 C 199.761719 187.375 198.414062 184.035156 196.867188 180.601562 C 193.96875 174.46875 189.972656 168.453125 186.179688 163.585938 C 184.269531 161.15625 182.449219 159.046875 180.636719 157.285156 C 179.714844 156.398438 178.820312 155.589844 177.652344 154.769531 C 177.054688 154.355469 176.390625 153.929688 175.429688 153.496094 C 174.886719 153.265625 174.242188 152.996094 173.398438 152.796875 C 172.371094 152.402344 171.257812 152.175781 170.085938 152.175781 L 126.183594 152.175781 C 132.035156 156.359375 137.339844 160.042969 142.125 163.269531 Z M 142.125 163.269531 " fill-opacity="1" fill-rule="nonzero"/><g clip-path="url(#ea2f53bfe8)"><path fill="#0c228a" d="M 96.257812 223.929688 C 96.234375 226.433594 97.046875 229.066406 98.328125 231.035156 C 100.625 234.527344 103.515625 236.121094 106.078125 237.257812 C 109.992188 238.902344 113.945312 239.582031 118.164062 240.070312 C 122.363281 240.53125 126.761719 240.679688 131.03125 240.683594 C 142.8125 240.675781 153.660156 239.507812 153.851562 239.492188 C 159.105469 238.929688 162.90625 234.21875 162.34375 228.972656 C 161.78125 223.71875 157.074219 219.917969 151.824219 220.480469 L 151.820312 220.480469 C 151.820312 220.480469 151.25 220.539062 150.132812 220.640625 C 146.792969 220.945312 138.921875 221.5625 131.03125 221.5625 C 125.269531 221.578125 119.390625 221.1875 115.914062 220.378906 C 115.839844 220.363281 115.765625 220.347656 115.695312 220.328125 C 116.757812 208.230469 118.113281 198.804688 119.542969 191.558594 L 122.253906 191.394531 C 120.941406 197.867188 119.613281 206.574219 118.527344 218.199219 C 121.601562 218.664062 125.96875 218.9375 130.714844 218.9375 L 131.023438 218.9375 C 132.851562 218.9375 134.679688 218.902344 136.441406 218.84375 L 140.199219 191.140625 C 131.445312 185.589844 121.539062 178.847656 110.289062 170.78125 C 108.84375 169.746094 107.703125 168.449219 106.867188 167.003906 C 105.609375 169.847656 104.449219 173.167969 103.3125 177.113281 C 102.085938 181.46875 100.929688 186.621094 99.878906 192.746094 C 98.480469 200.890625 97.265625 210.769531 96.304688 222.859375 C 96.277344 223.15625 96.257812 223.539062 96.257812 223.929688 Z M 96.257812 223.929688 " fill-opacity="1" fill-rule="nonzero"/></g><path fill="#0c228a" d="M 147 145.363281 C 161.851562 145.363281 173.890625 133.328125 173.890625 118.476562 C 173.890625 103.625 161.851562 91.589844 147 91.589844 C 132.152344 91.589844 120.113281 103.625 120.113281 118.476562 C 120.113281 133.324219 132.152344 145.363281 147 145.363281 Z M 157.167969 127.816406 C 159.542969 127.816406 161.078125 128.121094 161.167969 128.140625 L 160.457031 131.652344 C 160.457031 131.65625 160.195312 131.601562 159.621094 131.535156 C 159.046875 131.46875 158.199219 131.402344 157.167969 131.402344 C 153.394531 131.402344 147.242188 132.28125 142.113281 137.140625 L 139.648438 134.53125 C 145.707031 128.8125 152.882812 127.816406 157.167969 127.816406 Z M 157.167969 127.816406 " fill-opacity="1" fill-rule="nonzero"/><path fill="#0c228a" d="M 264.71875 35.046875 C 265.289062 32.996094 265.597656 30.867188 265.597656 28.679688 C 265.597656 12.839844 249.902344 0 230.542969 0 C 223.375 0 216.714844 1.765625 211.164062 4.78125 C 208.375 2.132812 204.617188 0.496094 200.46875 0.496094 C 191.886719 0.496094 184.933594 7.453125 184.933594 16.03125 C 184.933594 16.773438 185.003906 17.5 185.105469 18.214844 C 174.066406 22.800781 166.410156 32.804688 166.410156 44.414062 C 166.410156 53.679688 171.289062 61.917969 178.871094 67.203125 C 178.546875 68.621094 178.359375 70.085938 178.359375 71.601562 C 178.359375 82.492188 187.1875 91.320312 198.078125 91.320312 C 200.796875 91.320312 203.386719 90.769531 205.746094 89.773438 C 209.800781 94.605469 215.964844 97.695312 222.875 97.695312 C 230.804688 97.695312 237.738281 93.617188 241.640625 87.511719 C 242.644531 87.589844 243.65625 87.636719 244.683594 87.636719 C 263.496094 87.636719 278.742188 74.613281 278.742188 58.554688 C 278.742188 48.890625 273.21875 40.332031 264.71875 35.046875 Z M 187.324219 17.078125 C 187.324219 10.230469 192.875 4.679688 199.722656 4.679688 C 202.5625 4.679688 205.167969 5.644531 207.257812 7.246094 C 204.046875 9.585938 201.371094 12.398438 199.382812 15.550781 C 199.148438 15.546875 198.914062 15.53125 198.675781 15.53125 C 194.6875 15.53125 190.867188 16.183594 187.339844 17.371094 C 187.335938 17.273438 187.324219 17.175781 187.324219 17.078125 Z M 243.648438 83.488281 C 244.496094 81.203125 244.984375 78.75 244.984375 76.183594 C 244.984375 75.425781 244.941406 74.679688 244.863281 73.941406 C 243.710938 84.769531 234.308594 93.210938 222.875 93.210938 C 217.476562 93.210938 212.539062 91.324219 208.699219 88.199219 C 210.558594 87.007812 212.199219 85.519531 213.558594 83.792969 C 210.285156 86.257812 206.226562 87.734375 201.8125 87.734375 C 191.007812 87.734375 182.246094 78.976562 182.246094 68.167969 C 182.246094 63.15625 184.144531 58.601562 187.242188 55.140625 C 183.785156 57.417969 181.105469 60.761719 179.628906 64.695312 C 174.628906 59.585938 171.589844 52.871094 171.589844 45.511719 C 171.589844 29.503906 185.949219 16.53125 203.65625 16.53125 C 205.226562 16.53125 206.769531 16.640625 208.28125 16.835938 C 206.304688 16.285156 204.246094 15.902344 202.125 15.703125 C 208.316406 9.28125 217.722656 5.179688 228.253906 5.179688 C 246.761719 5.179688 261.785156 17.835938 262 33.519531 C 258.65625 31.828125 254.949219 30.617188 250.996094 29.984375 C 262.667969 34.453125 270.777344 44.296875 270.777344 55.734375 C 270.777344 69.445312 259.121094 80.878906 243.648438 83.488281 Z M 243.648438 83.488281 " fill-opacity="1" fill-rule="nonzero"/><path fill="#0c228a" d="M 202.011719 95.902344 C 197.308594 95.902344 193.496094 99.710938 193.496094 104.414062 C 193.496094 109.117188 197.308594 112.929688 202.011719 112.929688 C 206.714844 112.929688 210.527344 109.117188 210.527344 104.414062 C 210.527344 99.710938 206.714844 95.902344 202.011719 95.902344 Z M 201.167969 111.039062 C 198.03125 111.039062 195.488281 108.496094 195.488281 105.359375 C 195.488281 102.226562 198.03125 99.683594 201.167969 99.683594 C 204.300781 99.683594 206.84375 102.226562 206.84375 105.359375 C 206.84375 108.496094 204.300781 111.039062 201.167969 111.039062 Z M 201.167969 111.039062 " fill-opacity="1" fill-rule="nonzero"/><path fill="#0c228a" d="M 193.199219 115.222656 C 193.199219 111.976562 190.570312 109.34375 187.324219 109.34375 C 184.078125 109.34375 181.449219 111.976562 181.449219 115.222656 C 181.449219 118.464844 184.078125 121.097656 187.324219 121.097656 C 190.570312 121.097656 193.199219 118.464844 193.199219 115.222656 Z M 183.140625 115.417969 C 183.140625 113.273438 184.878906 111.535156 187.023438 111.535156 C 189.167969 111.535156 190.910156 113.273438 190.910156 115.417969 C 190.910156 117.5625 189.167969 119.304688 187.023438 119.304688 C 184.878906 119.304688 183.140625 117.5625 183.140625 115.417969 Z M 183.140625 115.417969 " fill-opacity="1" fill-rule="nonzero"/><path fill="#0c228a" d="M 238.75 46.148438 L 213.144531 46.148438 L 209.539062 40.410156 C 208.449219 38.671875 207.933594 36.757812 207.933594 34.855469 C 207.9375 31.367188 209.667969 27.96875 212.835938 25.984375 C 214.570312 24.894531 216.488281 24.378906 218.390625 24.378906 C 221.875 24.382812 225.269531 26.109375 227.265625 29.28125 L 231.359375 35.808594 L 234.398438 33.902344 L 230.296875 27.375 C 227.628906 23.125 223.054688 20.792969 218.390625 20.792969 C 215.835938 20.792969 213.242188 21.492188 210.929688 22.949219 C 206.679688 25.609375 204.34375 30.1875 204.347656 34.855469 C 204.347656 37.410156 205.046875 40 206.503906 42.316406 L 208.914062 46.148438 L 205.289062 46.148438 L 205.289062 73.238281 L 238.75 73.238281 Z M 220.226562 65.96875 L 220.226562 58.917969 C 219.074219 58.28125 218.285156 57.070312 218.285156 55.660156 C 218.285156 53.597656 219.957031 51.925781 222.019531 51.925781 C 224.082031 51.925781 225.753906 53.597656 225.753906 55.660156 C 225.753906 57.070312 224.964844 58.28125 223.8125 58.917969 L 223.8125 65.96875 Z M 220.226562 65.96875 " fill-opacity="1" fill-rule="nonzero"/><path fill="#0c228a" d="M 116.832031 82.890625 C 119.765625 79.242188 121.046875 73.960938 120.078125 68.78125 C 119.117188 63.625 115.441406 61.144531 117.425781 55.265625 C 118.199219 52.980469 119.703125 50.832031 121.226562 49.367188 C 122.382812 48.257812 121.273438 45.675781 120.101562 46.796875 C 117.1875 49.601562 114.984375 53.589844 114.507812 58.394531 C 113.996094 63.570312 117.816406 66.894531 118.25 71.753906 C 118.539062 75.027344 117.007812 78.609375 115.257812 80.789062 C 114.203125 82.097656 115.785156 84.195312 116.832031 82.890625 Z M 116.832031 82.890625 " fill-opacity="1" fill-rule="nonzero"/><path fill="#0c228a" d="M 134.292969 49.367188 C 135.449219 48.257812 134.335938 45.675781 133.167969 46.800781 C 130.253906 49.601562 128.050781 53.59375 127.574219 58.394531 C 127.0625 63.570312 130.882812 66.894531 131.3125 71.753906 C 131.601562 75.027344 130.074219 78.609375 128.324219 80.792969 C 127.269531 82.101562 128.847656 84.199219 129.898438 82.890625 C 132.832031 79.242188 134.113281 73.964844 133.144531 68.785156 C 132.183594 63.628906 128.503906 61.148438 130.492188 55.269531 C 131.265625 52.980469 132.765625 50.832031 134.292969 49.367188 Z M 134.292969 49.367188 " fill-opacity="1" fill-rule="nonzero"/><path fill="#0c228a" d="M 147.355469 49.367188 C 148.511719 48.257812 147.402344 45.675781 146.230469 46.800781 C 143.316406 49.601562 141.113281 53.59375 140.636719 58.394531 C 140.125 63.570312 143.945312 66.894531 144.375 71.753906 C 144.667969 75.027344 143.136719 78.609375 141.386719 80.792969 C 140.332031 82.101562 141.914062 84.199219 142.960938 82.890625 C 145.894531 79.242188 147.175781 73.964844 146.210938 68.785156 C 145.246094 63.628906 141.566406 61.148438 143.554688 55.269531 C 144.328125 52.980469 145.832031 50.832031 147.355469 49.367188 Z M 147.355469 49.367188 " fill-opacity="1" fill-rule="nonzero"/></svg>