<svg xmlns="http://www.w3.org/2000/svg" xmlns:xlink="http://www.w3.org/1999/xlink" width="500" zoomAndPan="magnify" viewBox="0 0 375 374.999991" height="500" preserveAspectRatio="xMidYMid meet" version="1.0"><defs><clipPath id="673e0681cd"><path d="M 0 19 L 375 19 L 375 356.53125 L 0 356.53125 Z M 0 19 " clip-rule="nonzero"/></clipPath></defs><g clip-path="url(#673e0681cd)"><path fill="#0c228a" d="M 356.195312 244.957031 C 356.980469 244.957031 357.820312 244.902344 358.609375 244.902344 C 361.597656 244.796875 364.535156 244.746094 367.421875 244.640625 C 367.421875 244.640625 367.421875 244.640625 367.476562 244.640625 C 367.949219 244.640625 368.472656 244.589844 368.945312 244.589844 L 374.875 244.378906 L 374.453125 232.574219 L 369.785156 232.730469 L 368.523438 232.78125 C 365.585938 232.886719 362.542969 232.992188 359.5 233.042969 C 361.285156 223.023438 360.652344 212.789062 357.347656 203.871094 C 353.519531 193.480469 346.015625 184.457031 336.253906 178.476562 C 332.371094 176.113281 328.121094 174.171875 323.347656 172.597656 C 318.625 167.140625 309.285156 163.101562 300.3125 162 C 289.292969 156.59375 275.808594 154.285156 261.800781 155.703125 C 252.617188 156.648438 244.640625 160.371094 236.875 164.046875 C 228.742188 167.875 220.976562 171.546875 212.894531 171.285156 C 204.605469 171.078125 196.367188 170.238281 188.285156 168.976562 C 184.980469 167.195312 181.675781 165.355469 178.371094 163.574219 C 166.09375 156.910156 154.546875 150.558594 145.050781 145.785156 C 135.765625 141.117188 125.585938 137.023438 112.9375 132.878906 C 111.628906 132.457031 110.316406 131.984375 108.949219 131.566406 C 103.597656 129.730469 98.039062 127.839844 92.003906 127.160156 C 84.183594 126.265625 77.363281 127.683594 72.273438 131.304688 C 70.804688 132.351562 69.492188 133.613281 68.234375 134.925781 C 64.351562 134.191406 60.46875 133.507812 56.53125 133.035156 C 48.714844 132.144531 41.894531 133.558594 36.804688 137.179688 C 29.195312 142.585938 24.523438 152.34375 24.421875 163.363281 C 24.316406 172.179688 26.730469 180.257812 29.667969 189.179688 C 31.1875 193.742188 32.761719 198.363281 34.390625 203.082031 L 0.179688 203.082031 L 0.179688 214.890625 L 71.171875 214.890625 C 72.011719 214.835938 72.796875 214.996094 73.53125 215.203125 C 73.636719 215.519531 73.742188 215.835938 73.847656 216.148438 C 77.152344 226.277344 80.617188 236.402344 84.394531 246.425781 C 85.128906 254.664062 85.285156 262.535156 85.445312 270.246094 C 85.550781 275.492188 85.652344 280.6875 85.96875 285.832031 C 86.179688 289.816406 86.492188 293.804688 87.019531 297.792969 C 87.59375 302.097656 88.382812 306.398438 89.484375 310.753906 C 91.949219 320.304688 95.992188 329.957031 102.757812 339.875 C 103.597656 341.082031 104.386719 342.289062 105.277344 343.496094 C 105.382812 343.601562 105.59375 343.914062 105.332031 344.386719 C 105.121094 344.859375 104.753906 344.859375 104.597656 344.859375 L 70.804688 344.859375 L 70.804688 356.71875 L 104.597656 356.71875 C 108.480469 356.71875 111.996094 354.988281 114.355469 352.050781 C 123.539062 352.3125 132.40625 352.46875 141.324219 352.46875 C 154.914062 352.46875 168.558594 352.050781 183.566406 350.789062 C 197.890625 349.582031 210.902344 342.761719 220.398438 332.738281 C 225.4375 341.136719 234.617188 346.90625 245.0625 347.0625 C 251.09375 347.167969 257.914062 347.378906 265.210938 347.589844 C 277.171875 347.957031 290.710938 348.324219 304.144531 348.375 C 304.351562 348.375 304.613281 348.375 304.824219 348.375 L 310.753906 348.375 L 310.753906 336.570312 L 304.824219 336.570312 C 291.339844 336.515625 277.644531 336.097656 265.523438 335.78125 C 258.179688 335.574219 251.304688 335.363281 245.21875 335.257812 C 237.136719 335.101562 230.367188 329.433594 228.53125 321.929688 C 232.625 314.898438 235.25 307.027344 235.878906 298.6875 C 238.132812 295.695312 247.738281 287.40625 254.191406 281.84375 C 254.609375 281.476562 254.976562 281.160156 255.398438 280.792969 C 256.5 280.792969 257.546875 280.742188 258.652344 280.636719 C 258.441406 280.898438 258.285156 281.109375 258.074219 281.371094 L 254.609375 286.144531 L 264.210938 293.019531 L 267.675781 288.191406 C 273.972656 279.429688 282.472656 274.652344 290.710938 270.769531 L 296.0625 268.253906 L 296.011719 268.148438 C 296.480469 267.9375 296.953125 267.726562 297.480469 267.570312 C 306.1875 264.109375 313.011719 263.320312 318.78125 263.425781 L 318.78125 263.476562 L 324.34375 263.792969 C 325.5 263.898438 326.601562 264.054688 327.703125 264.210938 C 329.433594 264.421875 331.21875 264.683594 332.949219 264.789062 C 340.664062 266.101562 346.277344 268.515625 352.152344 270.980469 C 354.148438 271.820312 356.140625 272.660156 358.1875 273.449219 L 358.609375 273.605469 L 363.699219 275.597656 L 368 264.578125 L 362.492188 262.429688 C 362.386719 262.375 362.332031 262.375 362.226562 262.324219 C 360.339844 261.589844 358.554688 260.800781 356.769531 260.066406 C 354.460938 259.070312 352.101562 258.074219 349.636719 257.179688 C 349.738281 257.023438 349.84375 256.917969 349.949219 256.761719 C 352.519531 253.140625 354.566406 249.152344 356.195312 244.957031 Z M 340.191406 250.359375 C 338.722656 252.617188 337.722656 253.296875 334.261719 253.140625 C 331.742188 252.722656 329.015625 252.40625 326.023438 252.195312 C 318.308594 251.304688 307.554688 250.9375 293.230469 256.65625 C 289.976562 257.96875 286.878906 259.28125 283.941406 260.488281 C 280.007812 262.167969 276.386719 263.636719 272.921875 264.945312 C 269.300781 266.3125 265.890625 267.414062 262.535156 268.09375 C 261.902344 268.199219 261.328125 268.359375 260.695312 268.460938 C 257.707031 268.988281 254.769531 269.144531 251.777344 268.882812 C 251.621094 268.882812 251.460938 268.882812 251.304688 268.828125 C 249.101562 268.621094 246.898438 268.199219 244.535156 267.519531 C 241.230469 266.574219 237.765625 265.105469 234.042969 263.058594 L 228.847656 260.226562 L 226.90625 263.6875 L 223.128906 270.5625 L 228.324219 273.394531 C 230.894531 274.8125 233.359375 275.964844 235.722656 276.964844 C 237.191406 277.539062 238.605469 278.066406 240.023438 278.535156 C 227.640625 289.398438 224.441406 292.964844 224.230469 296.902344 C 223.757812 305.035156 220.925781 312.75 216.359375 319.253906 C 208.75 330.117188 196.421875 337.777344 182.621094 338.984375 C 159.007812 340.976562 139.332031 340.820312 116.714844 340.242188 C 116.296875 338.929688 115.667969 337.621094 114.828125 336.464844 C 111.996094 332.6875 109.6875 328.910156 107.746094 325.234375 C 106.222656 322.351562 104.910156 319.515625 103.863281 316.683594 C 102.390625 312.90625 101.289062 309.179688 100.449219 305.402344 C 98.300781 295.957031 97.722656 286.355469 97.460938 276.28125 C 104.332031 289.871094 112.414062 302.9375 122.539062 314.953125 L 124.746094 317.574219 L 126.320312 319.464844 L 127.789062 318.207031 L 135.34375 311.855469 L 133.351562 309.496094 L 131.511719 307.292969 C 115.511719 288.246094 104.804688 266.679688 95.992188 243.75 C 92.265625 234.09375 88.90625 224.230469 85.601562 214.15625 C 84.972656 212.265625 84.34375 210.324219 83.710938 208.4375 C 83.503906 207.859375 83.34375 207.28125 83.136719 206.703125 C 82.714844 205.394531 82.296875 204.027344 81.824219 202.714844 C 81.5625 201.929688 81.351562 201.195312 81.089844 200.40625 C 79.460938 195.421875 77.835938 190.386719 76.210938 185.347656 C 73.953125 178.476562 71.433594 165.09375 71.539062 157.488281 C 71.589844 154.074219 72.273438 150.875 73.429688 148.042969 C 74.269531 145.996094 75.421875 144.210938 76.734375 142.792969 C 77.414062 142.058594 78.097656 141.378906 78.886719 140.800781 C 80.355469 139.75 82.347656 139.121094 84.65625 138.808594 C 86.441406 138.597656 88.382812 138.542969 90.429688 138.753906 C 95.203125 139.277344 99.925781 140.90625 104.910156 142.636719 C 106.273438 143.109375 107.691406 143.582031 109.054688 144.054688 C 121.125 147.988281 130.777344 151.871094 139.542969 156.28125 C 140.957031 157.015625 142.425781 157.75 143.949219 158.535156 C 150.824219 162.105469 158.640625 166.300781 166.878906 170.8125 C 168.769531 171.8125 170.65625 172.859375 172.546875 173.910156 C 176.480469 176.0625 180.417969 178.210938 184.402344 180.363281 C 195.316406 186.292969 206.023438 191.960938 215.675781 196.734375 C 218.667969 198.203125 221.554688 199.621094 224.28125 200.878906 C 228.21875 202.664062 232.730469 202.558594 236.558594 200.460938 C 238.132812 199.621094 240.652344 198.046875 243.75 196.105469 C 255.503906 188.757812 280.007812 173.492188 295.328125 173.492188 C 295.800781 173.492188 296.273438 173.492188 296.746094 173.542969 C 298.949219 173.648438 301.097656 174.015625 303.09375 174.539062 C 306.136719 175.328125 308.8125 176.429688 310.804688 177.53125 C 312.851562 178.632812 314.164062 179.683594 314.53125 180.3125 C 314.636719 180.941406 314.480469 181.625 314.269531 182.359375 C 313.851562 183.667969 312.957031 185.085938 311.59375 186.242188 C 309.390625 188.183594 306.398438 189.597656 303.25 191.121094 L 301.992188 191.75 C 300.15625 192.640625 298.160156 193.640625 296.167969 194.6875 C 291.023438 197.417969 285.464844 200.671875 280.214844 204.710938 C 277.855469 206.546875 275.546875 208.539062 273.394531 210.691406 C 272.292969 211.792969 271.558594 213 271.136719 214.3125 C 270.667969 215.835938 270.613281 217.460938 271.085938 219.035156 C 272.765625 224.441406 280.847656 228.53125 294.855469 231.15625 C 295.117188 231.207031 295.273438 231.46875 295.273438 231.734375 L 294.644531 232.308594 L 270.507812 231.207031 C 250.515625 231 229.214844 226.644531 208.488281 220.871094 C 207.910156 220.714844 207.28125 220.558594 206.703125 220.398438 C 204.761719 219.820312 202.820312 219.296875 200.878906 218.71875 C 200.460938 218.617188 200.039062 218.457031 199.621094 218.351562 C 198.097656 217.878906 196.628906 217.460938 195.109375 216.988281 C 193.007812 216.359375 190.859375 215.675781 188.757812 214.996094 C 182.566406 213 176.480469 210.953125 170.605469 208.960938 C 168.609375 208.277344 166.667969 207.597656 164.726562 206.914062 C 161.945312 205.96875 159.269531 204.972656 156.59375 204.082031 C 151.976562 202.453125 147.621094 200.933594 143.371094 199.464844 C 143.160156 199.410156 142.953125 199.304688 142.742188 199.253906 C 141.378906 198.78125 140.066406 198.363281 138.753906 197.890625 C 134.191406 192.222656 130.253906 184.71875 127 175.535156 L 125.007812 169.976562 L 114.039062 173.859375 L 116.035156 179.417969 C 118.449219 186.242188 121.28125 192.328125 124.429688 197.574219 C 124.691406 198.046875 125.007812 198.519531 125.269531 198.992188 C 126.371094 200.722656 127.472656 202.296875 128.628906 203.820312 C 128.890625 204.132812 129.152344 204.5 129.414062 204.816406 C 130.097656 205.707031 130.832031 206.546875 131.511719 207.332031 C 132.039062 208.277344 132.5625 209.222656 133.085938 210.113281 C 133.191406 210.324219 133.296875 210.535156 133.402344 210.746094 C 143.6875 229.160156 149.824219 238.554688 166.984375 254.453125 C 168.558594 255.921875 170.183594 257.390625 171.8125 258.859375 C 176.796875 263.371094 181.519531 267.625 185.558594 272.449219 C 191.382812 279.375 194.742188 286.300781 195.421875 292.964844 L 195.527344 293.804688 L 196.054688 298.84375 L 207.804688 297.585938 L 207.175781 291.707031 C 206.230469 282.628906 201.980469 273.605469 194.582031 264.84375 C 189.964844 259.386719 184.773438 254.664062 179.683594 250.097656 C 178.109375 248.679688 176.535156 247.265625 174.960938 245.796875 C 162 233.726562 155.964844 226.117188 148.617188 213.683594 C 149.984375 214.15625 151.347656 214.628906 152.710938 215.101562 C 165.933594 219.71875 180.417969 224.808594 195.421875 229.320312 C 196 233.726562 197.101562 237.976562 198.78125 241.648438 L 201.195312 247.054688 L 208.4375 243.800781 L 212.003906 242.226562 L 209.589844 236.824219 C 209.277344 236.089844 209.011719 235.300781 208.699219 234.460938 C 208.539062 233.988281 208.382812 233.464844 208.226562 232.941406 C 214.835938 234.722656 221.5 236.351562 228.164062 237.765625 C 235.824219 239.394531 243.488281 240.707031 251.09375 241.597656 C 257.546875 242.332031 263.949219 242.855469 270.246094 242.910156 L 284.359375 243.539062 L 294.226562 244.011719 C 297.582031 244.167969 300.890625 242.910156 303.355469 240.601562 C 304.300781 239.707031 304.980469 238.660156 305.613281 237.558594 C 306.609375 235.773438 307.1875 233.726562 307.1875 231.628906 C 307.1875 225.960938 303.355469 221.027344 297.480469 219.558594 C 292.964844 218.71875 288.085938 217.304688 284.9375 216.042969 C 291.96875 210.011719 300.3125 205.601562 307.132812 202.296875 L 308.394531 201.71875 C 311.960938 199.988281 316 198.046875 319.464844 195.003906 C 322.351562 192.433594 324.398438 189.335938 325.5 186.082031 C 327.074219 186.816406 328.59375 187.605469 330.011719 188.496094 C 337.515625 193.0625 343.285156 199.988281 346.171875 207.859375 C 348.953125 215.46875 349.214844 224.542969 347.273438 233.308594 C 346.800781 235.300781 346.222656 237.347656 345.542969 239.289062 C 344.808594 241.335938 343.96875 243.382812 342.972656 245.324219 C 342.183594 247.160156 341.238281 248.785156 340.191406 250.359375 Z M 46.878906 203.082031 C 44.777344 197.15625 42.785156 191.277344 40.894531 185.507812 C 38.324219 177.636719 36.175781 170.550781 36.226562 163.574219 C 36.332031 156.4375 39.113281 150.035156 43.625 146.886719 C 45.671875 145.417969 48.660156 144.683594 52.175781 144.683594 C 53.175781 144.683594 54.171875 144.734375 55.222656 144.839844 C 57.476562 145.101562 59.679688 145.417969 61.882812 145.785156 C 60.625 149.40625 59.941406 153.394531 59.890625 157.539062 C 59.785156 166.667969 62.515625 181.308594 65.136719 189.230469 C 66.660156 193.847656 68.179688 198.519531 69.648438 203.136719 L 46.878906 203.136719 Z M 241.859375 174.75 C 249.046875 171.390625 255.765625 168.191406 262.953125 167.507812 C 266.152344 167.195312 269.300781 167.140625 272.449219 167.246094 C 259.28125 172.652344 246.214844 180.785156 237.664062 186.136719 C 234.828125 187.917969 232.574219 189.335938 231.101562 190.125 C 230.527344 190.4375 229.894531 190.4375 229.371094 190.226562 C 224.859375 188.183594 219.980469 185.714844 214.785156 183.09375 C 224.859375 182.726562 233.410156 178.683594 241.859375 174.75 Z M 271.820312 131.566406 L 260.015625 131.566406 L 260.015625 105.59375 L 271.820312 105.59375 Z M 298.632812 142.847656 L 287.71875 138.28125 L 298.160156 113.199219 L 309.074219 117.765625 Z M 233.621094 113.199219 L 244.0625 138.28125 L 233.148438 142.847656 L 222.707031 117.765625 Z M 339.929688 309.96875 L 343.8125 310.753906 L 341.398438 322.351562 L 335.625 321.144531 C 334.472656 320.882812 333.371094 320.671875 332.214844 320.460938 C 331.898438 320.410156 331.585938 320.355469 331.269531 320.25 C 305.507812 315.320312 286.25 315.582031 267.570312 320.984375 L 261.902344 322.664062 L 258.597656 311.332031 L 264.265625 309.652344 C 291.550781 301.675781 316.894531 305.140625 338.039062 309.546875 L 338.929688 309.703125 Z M 135.761719 101.082031 L 136.339844 101.289062 C 139.015625 102.183594 141.796875 102.65625 144.472656 102.65625 C 150.980469 102.65625 157.277344 100.136719 162.15625 95.625 C 166.617188 97.617188 171.234375 98.5625 174.539062 99.140625 C 173.699219 100.660156 173.019531 102.289062 172.546875 104.070312 C 171.234375 109.054688 171.234375 116.140625 175.695312 119.761719 C 178.476562 122.015625 181.570312 122.699219 184.089844 123.222656 C 184.980469 123.433594 185.875 123.589844 186.714844 123.90625 C 188.496094 124.535156 189.964844 126.265625 190.699219 128.46875 C 191.433594 130.675781 191.226562 132.929688 190.226562 134.503906 L 186.976562 139.4375 L 196.839844 145.941406 L 200.09375 141.011719 C 203.1875 136.394531 203.820312 130.464844 201.929688 124.746094 C 200.039062 119.027344 195.949219 114.671875 190.699219 112.78125 C 189.390625 112.308594 187.972656 111.996094 186.609375 111.679688 C 185.507812 111.417969 184.402344 111.207031 183.667969 110.890625 C 183.460938 109.738281 183.566406 107.167969 184.929688 104.753906 C 186.242188 102.390625 188.285156 100.976562 191.015625 100.503906 C 192.957031 100.347656 194.792969 100.082031 196.628906 99.609375 L 196.945312 99.558594 L 196.945312 99.507812 C 200.09375 98.667969 203.03125 97.199219 205.707031 94.941406 C 210.429688 90.953125 212.738281 85.496094 213.839844 80.300781 C 221.1875 80.511719 227.484375 78.359375 231.523438 73.902344 C 236.089844 68.863281 237.558594 61.097656 235.195312 54.117188 C 232.835938 47.140625 227.585938 42.523438 223.601562 39.847656 C 217.722656 35.964844 210.691406 33.707031 203.347656 33.234375 C 200.566406 29.980469 197.15625 27.304688 193.375 25.207031 C 184.246094 20.066406 172.859375 18.4375 161.945312 21.113281 C 155.125 22.792969 148.566406 26.097656 142.742188 30.613281 C 136.707031 35.335938 131.460938 41.367188 127.367188 48.453125 C 123.589844 55.011719 120.703125 62.515625 118.761719 70.804688 C 115.773438 83.816406 123.117188 96.777344 135.761719 101.082031 Z M 217.09375 49.710938 C 220.558594 52.019531 223.023438 54.90625 224.019531 57.898438 C 225.015625 60.835938 224.542969 64.089844 222.8125 65.925781 C 220.925781 68.023438 217.671875 68.546875 214.628906 68.496094 C 214.574219 67.394531 214.523438 66.398438 214.417969 65.664062 C 213.996094 59.941406 213.160156 53.226562 210.902344 46.71875 C 213.160156 47.507812 215.203125 48.503906 217.09375 49.710938 Z M 198.152344 85.917969 C 196.996094 86.859375 195.632812 87.542969 194.109375 88.015625 L 189.859375 88.695312 C 186.136719 88.90625 181.9375 88.382812 177.742188 87.648438 C 174.59375 87.125 171.917969 86.492188 169.710938 85.757812 C 178.84375 73.953125 191.121094 75.105469 202.246094 78.203125 C 201.507812 81.667969 200.144531 84.238281 198.152344 85.917969 Z M 197.3125 45.144531 C 200.984375 51.652344 202.085938 59.574219 202.613281 66.132812 C 192.800781 63.667969 173.910156 60.992188 160.371094 78.519531 C 160.058594 77.625 159.898438 76.679688 159.796875 75.578125 C 159.53125 72.222656 160.84375 68.496094 163.363281 65.398438 C 171.550781 55.378906 181.675781 48.503906 191.90625 46.039062 C 193.742188 45.566406 195.527344 45.25 197.3125 45.144531 Z M 130.308594 73.480469 C 131.984375 66.34375 134.453125 59.890625 137.652344 54.382812 C 144.105469 43.152344 154.023438 35.230469 164.832031 32.554688 C 172.386719 30.664062 180.417969 31.765625 186.871094 35.070312 C 175.011719 38.535156 163.46875 46.5625 154.285156 57.84375 C 149.773438 63.40625 147.570312 70.019531 148.09375 76.472656 C 148.515625 81.402344 150.140625 85.234375 152.5 88.226562 C 148.882812 90.691406 144.421875 91.425781 140.222656 90.007812 L 139.648438 89.800781 C 132.667969 87.542969 128.679688 80.511719 130.308594 73.480469 Z M 130.308594 73.480469 " fill-opacity="1" fill-rule="nonzero"/></g></svg>