<svg xmlns="http://www.w3.org/2000/svg" xmlns:xlink="http://www.w3.org/1999/xlink" width="500" zoomAndPan="magnify" viewBox="0 0 375 374.999991" height="500" preserveAspectRatio="xMidYMid meet" version="1.0"><path fill="#0c228a" d="M 172.597656 185.164062 C 172.34375 185.359375 172.113281 185.578125 171.902344 185.820312 C 171.691406 186.0625 171.507812 186.324219 171.347656 186.601562 C 171.191406 186.878906 171.0625 187.171875 170.960938 187.476562 C 170.859375 187.78125 170.789062 188.089844 170.753906 188.410156 C 170.714844 188.726562 170.707031 189.046875 170.730469 189.363281 C 170.757812 189.683594 170.8125 190 170.898438 190.308594 C 170.988281 190.617188 171.101562 190.914062 171.25 191.199219 C 171.394531 191.484375 171.570312 191.75 171.769531 192 C 171.96875 192.25 172.191406 192.480469 172.433594 192.6875 C 172.679688 192.894531 172.941406 193.074219 173.222656 193.226562 C 173.503906 193.382812 173.796875 193.507812 174.105469 193.601562 C 174.410156 193.699219 174.722656 193.765625 175.039062 193.796875 C 175.359375 193.832031 175.679688 193.832031 175.996094 193.804688 C 176.316406 193.773438 176.628906 193.710938 176.9375 193.621094 C 177.242188 193.527344 177.539062 193.40625 177.820312 193.257812 C 178.105469 193.105469 178.371094 192.929688 178.617188 192.726562 C 179.226562 192.117188 179.890625 191.574219 180.605469 191.097656 C 181.324219 190.621094 182.078125 190.21875 182.875 189.890625 C 183.671875 189.5625 184.492188 189.316406 185.335938 189.148438 C 186.179688 188.980469 187.03125 188.894531 187.894531 188.894531 C 188.753906 188.894531 189.605469 188.980469 190.453125 189.148438 C 191.296875 189.316406 192.117188 189.5625 192.910156 189.890625 C 193.707031 190.21875 194.464844 190.621094 195.179688 191.097656 C 195.898438 191.574219 196.558594 192.117188 197.171875 192.726562 C 197.417969 192.921875 197.683594 193.09375 197.964844 193.238281 C 198.246094 193.382812 198.542969 193.5 198.847656 193.589844 C 199.152344 193.675781 199.460938 193.734375 199.777344 193.757812 C 200.09375 193.785156 200.410156 193.78125 200.726562 193.746094 C 201.039062 193.707031 201.347656 193.644531 201.652344 193.546875 C 201.953125 193.449219 202.242188 193.324219 202.519531 193.171875 C 202.796875 193.015625 203.058594 192.835938 203.300781 192.632812 C 203.542969 192.429688 203.761719 192.203125 203.960938 191.953125 C 204.15625 191.707031 204.328125 191.441406 204.472656 191.160156 C 204.621094 190.875 204.734375 190.582031 204.824219 190.277344 C 204.910156 189.972656 204.96875 189.664062 204.996094 189.347656 C 205.019531 189.03125 205.015625 188.714844 204.980469 188.398438 C 204.945312 188.085938 204.878906 187.777344 204.78125 187.472656 C 204.6875 187.171875 204.5625 186.882812 204.40625 186.605469 C 204.253906 186.328125 204.074219 186.066406 203.871094 185.824219 C 203.667969 185.582031 203.441406 185.363281 203.191406 185.164062 C 202.675781 184.6875 202.140625 184.238281 201.582031 183.8125 C 201.027344 183.386719 200.449219 182.988281 199.855469 182.617188 C 199.261719 182.246094 198.652344 181.902344 198.027344 181.585938 C 197.398438 181.273438 196.761719 180.988281 196.109375 180.730469 C 195.453125 180.476562 194.792969 180.253906 194.117188 180.058594 C 193.445312 179.867188 192.761719 179.703125 192.074219 179.574219 C 191.386719 179.445312 190.691406 179.347656 189.992188 179.28125 C 189.296875 179.214844 188.597656 179.183594 187.894531 179.183594 C 187.195312 179.183594 186.496094 179.214844 185.796875 179.28125 C 185.097656 179.347656 184.40625 179.445312 183.71875 179.574219 C 183.027344 179.703125 182.347656 179.867188 181.671875 180.058594 C 181 180.253906 180.335938 180.476562 179.683594 180.730469 C 179.03125 180.988281 178.390625 181.273438 177.765625 181.585938 C 177.136719 181.902344 176.527344 182.246094 175.933594 182.617188 C 175.339844 182.988281 174.765625 183.386719 174.207031 183.8125 C 173.648438 184.238281 173.113281 184.6875 172.597656 185.164062 Z M 172.597656 185.164062 " fill-opacity="1" fill-rule="nonzero"/><path fill="#0c228a" d="M 39.253906 106.941406 C 39.480469 107.160156 39.726562 107.355469 39.988281 107.523438 C 40.253906 107.695312 40.53125 107.839844 40.820312 107.953125 C 41.113281 108.070312 41.414062 108.160156 41.722656 108.214844 C 42.03125 108.273438 42.339844 108.300781 42.652344 108.300781 C 42.96875 108.296875 43.277344 108.261719 43.585938 108.199219 C 43.894531 108.136719 44.191406 108.042969 44.480469 107.921875 C 44.769531 107.800781 45.046875 107.652344 45.304688 107.480469 C 45.566406 107.304688 45.808594 107.105469 46.027344 106.882812 C 46.25 106.660156 46.449219 106.421875 46.625 106.160156 C 46.800781 105.898438 46.945312 105.625 47.070312 105.335938 C 47.191406 105.046875 47.28125 104.746094 47.34375 104.441406 C 47.410156 104.132812 47.441406 103.824219 47.445312 103.507812 C 47.445312 103.195312 47.417969 102.882812 47.363281 102.574219 C 47.304688 102.265625 47.214844 101.96875 47.101562 101.675781 C 46.984375 101.382812 46.839844 101.105469 46.671875 100.84375 C 46.5 100.578125 46.304688 100.335938 46.089844 100.109375 L 31.691406 85.710938 C 31.464844 85.492188 31.21875 85.300781 30.957031 85.128906 C 30.691406 84.960938 30.414062 84.816406 30.125 84.699219 C 29.832031 84.582031 29.53125 84.496094 29.226562 84.4375 C 28.917969 84.378906 28.605469 84.351562 28.292969 84.355469 C 27.976562 84.359375 27.667969 84.390625 27.359375 84.453125 C 27.050781 84.519531 26.753906 84.609375 26.464844 84.730469 C 26.175781 84.851562 25.902344 85 25.640625 85.175781 C 25.378906 85.351562 25.136719 85.550781 24.917969 85.769531 C 24.695312 85.992188 24.496094 86.234375 24.320312 86.496094 C 24.144531 86.753906 24 87.03125 23.875 87.320312 C 23.753906 87.609375 23.664062 87.90625 23.601562 88.214844 C 23.535156 88.523438 23.503906 88.832031 23.5 89.144531 C 23.5 89.460938 23.527344 89.769531 23.582031 90.078125 C 23.640625 90.386719 23.730469 90.6875 23.84375 90.980469 C 23.960938 91.269531 24.105469 91.546875 24.273438 91.8125 C 24.445312 92.074219 24.640625 92.320312 24.859375 92.546875 Z M 39.253906 106.941406 " fill-opacity="1" fill-rule="nonzero"/><path fill="#0c228a" d="M 31.691406 227.125 L 46.089844 212.730469 C 46.3125 212.507812 46.511719 212.261719 46.6875 212 C 46.867188 211.734375 47.015625 211.457031 47.136719 211.164062 C 47.257812 210.871094 47.347656 210.570312 47.410156 210.257812 C 47.472656 209.945312 47.503906 209.632812 47.503906 209.316406 C 47.503906 208.996094 47.472656 208.683594 47.410156 208.371094 C 47.351562 208.0625 47.257812 207.757812 47.136719 207.464844 C 47.015625 207.171875 46.867188 206.894531 46.691406 206.628906 C 46.515625 206.367188 46.3125 206.121094 46.089844 205.898438 C 45.867188 205.671875 45.621094 205.472656 45.359375 205.296875 C 45.09375 205.121094 44.816406 204.96875 44.523438 204.847656 C 44.230469 204.726562 43.925781 204.636719 43.617188 204.574219 C 43.304688 204.511719 42.988281 204.480469 42.671875 204.480469 C 42.355469 204.480469 42.042969 204.511719 41.730469 204.574219 C 41.417969 204.636719 41.117188 204.726562 40.824219 204.847656 C 40.53125 204.96875 40.25 205.117188 39.988281 205.292969 C 39.722656 205.472656 39.480469 205.671875 39.253906 205.894531 L 24.859375 220.292969 C 24.625 220.515625 24.421875 220.757812 24.238281 221.023438 C 24.054688 221.289062 23.902344 221.566406 23.773438 221.863281 C 23.648438 222.15625 23.550781 222.460938 23.484375 222.773438 C 23.417969 223.089844 23.386719 223.40625 23.382812 223.726562 C 23.378906 224.046875 23.410156 224.367188 23.46875 224.679688 C 23.53125 224.996094 23.621094 225.300781 23.742188 225.597656 C 23.863281 225.894531 24.011719 226.179688 24.191406 226.445312 C 24.367188 226.710938 24.570312 226.960938 24.796875 227.1875 C 25.023438 227.414062 25.273438 227.617188 25.539062 227.792969 C 25.804688 227.96875 26.085938 228.121094 26.386719 228.242188 C 26.683594 228.363281 26.988281 228.453125 27.304688 228.515625 C 27.617188 228.574219 27.9375 228.605469 28.257812 228.601562 C 28.578125 228.597656 28.894531 228.5625 29.207031 228.5 C 29.523438 228.433594 29.828125 228.335938 30.121094 228.210938 C 30.417969 228.082031 30.695312 227.929688 30.960938 227.746094 C 31.222656 227.5625 31.46875 227.355469 31.691406 227.125 Z M 31.691406 227.125 " fill-opacity="1" fill-rule="nonzero"/><path fill="#0c228a" d="M 30.429688 156.417969 C 30.429688 156.101562 30.398438 155.785156 30.339844 155.476562 C 30.277344 155.164062 30.183594 154.863281 30.0625 154.566406 C 29.941406 154.273438 29.792969 153.996094 29.617188 153.734375 C 29.441406 153.46875 29.238281 153.226562 29.015625 153 C 28.792969 152.777344 28.546875 152.574219 28.285156 152.398438 C 28.019531 152.222656 27.742188 152.074219 27.449219 151.953125 C 27.15625 151.832031 26.851562 151.738281 26.542969 151.679688 C 26.230469 151.617188 25.914062 151.585938 25.597656 151.585938 L 5.226562 151.585938 C 4.910156 151.585938 4.597656 151.617188 4.285156 151.679688 C 3.972656 151.738281 3.671875 151.832031 3.378906 151.953125 C 3.085938 152.074219 2.808594 152.222656 2.542969 152.398438 C 2.28125 152.574219 2.035156 152.777344 1.8125 153 C 1.585938 153.226562 1.386719 153.46875 1.210938 153.734375 C 1.035156 153.996094 0.882812 154.273438 0.761719 154.566406 C 0.640625 154.863281 0.550781 155.164062 0.488281 155.476562 C 0.425781 155.785156 0.394531 156.101562 0.394531 156.417969 C 0.394531 156.734375 0.425781 157.050781 0.488281 157.359375 C 0.550781 157.671875 0.640625 157.972656 0.761719 158.265625 C 0.882812 158.558594 1.035156 158.839844 1.210938 159.101562 C 1.386719 159.367188 1.585938 159.609375 1.8125 159.835938 C 2.035156 160.058594 2.28125 160.257812 2.542969 160.4375 C 2.808594 160.613281 3.085938 160.761719 3.378906 160.882812 C 3.671875 161.003906 3.972656 161.09375 4.285156 161.15625 C 4.597656 161.21875 4.910156 161.25 5.226562 161.25 L 25.589844 161.25 C 25.90625 161.25 26.222656 161.21875 26.53125 161.160156 C 26.84375 161.097656 27.148438 161.007812 27.441406 160.886719 C 27.734375 160.765625 28.015625 160.613281 28.277344 160.4375 C 28.542969 160.261719 28.789062 160.0625 29.011719 159.839844 C 29.238281 159.613281 29.4375 159.371094 29.613281 159.105469 C 29.792969 158.839844 29.941406 158.5625 30.0625 158.269531 C 30.183594 157.976562 30.277344 157.671875 30.335938 157.363281 C 30.398438 157.050781 30.429688 156.734375 30.429688 156.417969 Z M 30.429688 156.417969 " fill-opacity="1" fill-rule="nonzero"/><path fill="#0c228a" d="M 336.539062 205.890625 C 336.316406 205.664062 336.070312 205.464844 335.808594 205.289062 C 335.542969 205.109375 335.265625 204.960938 334.972656 204.839844 C 334.675781 204.71875 334.375 204.628906 334.0625 204.566406 C 333.753906 204.503906 333.4375 204.472656 333.121094 204.472656 C 332.804688 204.472656 332.488281 204.503906 332.175781 204.566406 C 331.867188 204.625 331.5625 204.71875 331.269531 204.839844 C 330.976562 204.960938 330.699219 205.109375 330.433594 205.285156 C 330.171875 205.464844 329.925781 205.664062 329.703125 205.886719 C 329.476562 206.113281 329.277344 206.355469 329.101562 206.621094 C 328.925781 206.886719 328.777344 207.164062 328.65625 207.457031 C 328.53125 207.75 328.441406 208.054688 328.378906 208.363281 C 328.316406 208.675781 328.289062 208.992188 328.289062 209.308594 C 328.289062 209.625 328.320312 209.941406 328.378906 210.25 C 328.441406 210.5625 328.535156 210.863281 328.65625 211.15625 C 328.777344 211.449219 328.925781 211.730469 329.105469 211.992188 C 329.28125 212.257812 329.480469 212.5 329.707031 212.726562 L 344.101562 227.121094 C 344.324219 227.351562 344.566406 227.558594 344.832031 227.738281 C 345.09375 227.921875 345.375 228.074219 345.667969 228.203125 C 345.964844 228.328125 346.269531 228.425781 346.582031 228.492188 C 346.894531 228.558594 347.214844 228.59375 347.535156 228.59375 C 347.855469 228.597656 348.171875 228.570312 348.488281 228.507812 C 348.804688 228.449219 349.109375 228.355469 349.40625 228.234375 C 349.703125 228.113281 349.984375 227.964844 350.253906 227.785156 C 350.519531 227.609375 350.765625 227.40625 350.992188 227.179688 C 351.21875 226.953125 351.421875 226.707031 351.601562 226.4375 C 351.777344 226.171875 351.925781 225.890625 352.046875 225.59375 C 352.171875 225.296875 352.261719 224.988281 352.320312 224.675781 C 352.382812 224.359375 352.410156 224.042969 352.410156 223.71875 C 352.40625 223.398438 352.371094 223.082031 352.304688 222.769531 C 352.238281 222.453125 352.144531 222.148438 352.015625 221.855469 C 351.890625 221.558594 351.734375 221.28125 351.554688 221.015625 C 351.371094 220.753906 351.164062 220.507812 350.933594 220.285156 Z M 336.539062 205.890625 " fill-opacity="1" fill-rule="nonzero"/><path fill="#0c228a" d="M 333.121094 108.359375 C 333.761719 108.359375 334.378906 108.238281 334.972656 107.992188 C 335.5625 107.746094 336.085938 107.394531 336.539062 106.941406 L 350.933594 92.546875 C 351.164062 92.320312 351.371094 92.078125 351.554688 91.816406 C 351.734375 91.550781 351.890625 91.269531 352.015625 90.976562 C 352.144531 90.683594 352.238281 90.378906 352.304688 90.0625 C 352.371094 89.75 352.40625 89.433594 352.410156 89.109375 C 352.410156 88.789062 352.382812 88.472656 352.320312 88.15625 C 352.261719 87.84375 352.171875 87.535156 352.050781 87.238281 C 351.925781 86.941406 351.777344 86.660156 351.601562 86.394531 C 351.421875 86.125 351.21875 85.878906 350.992188 85.652344 C 350.765625 85.425781 350.519531 85.222656 350.253906 85.046875 C 349.984375 84.867188 349.703125 84.71875 349.40625 84.597656 C 349.109375 84.476562 348.804688 84.382812 348.488281 84.324219 C 348.171875 84.261719 347.855469 84.234375 347.535156 84.238281 C 347.214844 84.238281 346.894531 84.273438 346.582031 84.339844 C 346.269531 84.40625 345.964844 84.503906 345.667969 84.628906 C 345.375 84.753906 345.09375 84.910156 344.832031 85.09375 C 344.566406 85.273438 344.324219 85.480469 344.101562 85.710938 L 329.707031 100.109375 C 329.367188 100.449219 329.085938 100.828125 328.859375 101.25 C 328.636719 101.667969 328.476562 102.113281 328.382812 102.582031 C 328.289062 103.050781 328.265625 103.523438 328.3125 104 C 328.359375 104.476562 328.472656 104.933594 328.65625 105.375 C 328.839844 105.816406 329.082031 106.222656 329.386719 106.59375 C 329.6875 106.960938 330.039062 107.28125 330.4375 107.546875 C 330.832031 107.8125 331.261719 108.011719 331.71875 108.152344 C 332.175781 108.289062 332.644531 108.359375 333.121094 108.359375 Z M 333.121094 108.359375 " fill-opacity="1" fill-rule="nonzero"/><path fill="#0c228a" d="M 370.5625 151.585938 L 350.203125 151.585938 C 349.886719 151.585938 349.570312 151.617188 349.257812 151.679688 C 348.949219 151.738281 348.644531 151.832031 348.351562 151.953125 C 348.058594 152.074219 347.78125 152.222656 347.515625 152.398438 C 347.253906 152.574219 347.007812 152.777344 346.785156 153 C 346.5625 153.226562 346.359375 153.46875 346.183594 153.734375 C 346.007812 153.996094 345.859375 154.273438 345.738281 154.566406 C 345.617188 154.863281 345.523438 155.164062 345.460938 155.476562 C 345.402344 155.785156 345.371094 156.101562 345.371094 156.417969 C 345.371094 156.734375 345.402344 157.050781 345.460938 157.359375 C 345.523438 157.671875 345.617188 157.972656 345.738281 158.265625 C 345.859375 158.558594 346.007812 158.839844 346.183594 159.101562 C 346.359375 159.367188 346.5625 159.609375 346.785156 159.835938 C 347.007812 160.058594 347.253906 160.257812 347.515625 160.4375 C 347.78125 160.613281 348.058594 160.761719 348.351562 160.882812 C 348.644531 161.003906 348.949219 161.09375 349.257812 161.15625 C 349.570312 161.21875 349.886719 161.25 350.203125 161.25 L 370.5625 161.25 C 370.878906 161.25 371.195312 161.21875 371.503906 161.15625 C 371.816406 161.09375 372.117188 161.003906 372.414062 160.882812 C 372.707031 160.761719 372.984375 160.613281 373.246094 160.4375 C 373.511719 160.257812 373.753906 160.058594 373.980469 159.835938 C 374.203125 159.609375 374.40625 159.367188 374.582031 159.101562 C 374.757812 158.839844 374.90625 158.558594 375.027344 158.265625 C 375.148438 157.972656 375.242188 157.671875 375.300781 157.359375 C 375.363281 157.050781 375.394531 156.734375 375.394531 156.417969 C 375.394531 156.101562 375.363281 155.785156 375.300781 155.476562 C 375.242188 155.164062 375.148438 154.863281 375.027344 154.566406 C 374.90625 154.273438 374.757812 153.996094 374.582031 153.734375 C 374.40625 153.46875 374.203125 153.226562 373.980469 153 C 373.753906 152.777344 373.511719 152.574219 373.246094 152.398438 C 372.984375 152.222656 372.707031 152.074219 372.414062 151.953125 C 372.117188 151.832031 371.816406 151.738281 371.503906 151.679688 C 371.195312 151.617188 370.878906 151.585938 370.5625 151.585938 Z M 370.5625 151.585938 " fill-opacity="1" fill-rule="nonzero"/><path fill="#0c228a" d="M 263.308594 189.347656 C 262.449219 188.117188 261.414062 187.0625 260.199219 186.183594 C 260.324219 185.859375 260.449219 185.5625 260.574219 185.246094 C 261.878906 184.035156 263.152344 182.796875 264.394531 181.523438 C 265.632812 180.253906 266.84375 178.949219 268.019531 177.617188 C 269.195312 176.285156 270.339844 174.925781 271.449219 173.535156 C 272.554688 172.144531 273.628906 170.730469 274.667969 169.285156 C 275.707031 167.84375 276.707031 166.375 277.671875 164.882812 C 278.636719 163.390625 279.5625 161.875 280.453125 160.335938 C 281.34375 158.796875 282.191406 157.238281 283.003906 155.65625 C 283.816406 154.074219 284.585938 152.472656 285.316406 150.851562 C 286.050781 149.234375 286.738281 147.597656 287.390625 145.941406 C 288.039062 144.285156 288.648438 142.617188 289.214844 140.933594 C 289.78125 139.246094 290.304688 137.550781 290.785156 135.839844 C 291.269531 134.128906 291.707031 132.40625 292.105469 130.671875 C 292.5 128.941406 292.851562 127.199219 293.160156 125.449219 C 293.46875 123.699219 293.734375 121.941406 293.957031 120.179688 C 294.179688 118.414062 294.355469 116.648438 294.488281 114.875 C 294.621094 113.101562 294.710938 111.328125 294.757812 109.550781 C 294.800781 107.773438 294.800781 105.996094 294.757812 104.21875 C 294.714844 102.441406 294.625 100.667969 294.492188 98.894531 C 294.359375 97.121094 294.183594 95.355469 293.964844 93.589844 C 293.742188 91.828125 293.476562 90.070312 293.167969 88.320312 C 292.859375 86.570312 292.507812 84.828125 292.113281 83.09375 C 291.71875 81.363281 291.28125 79.640625 290.800781 77.929688 C 290.320312 76.21875 289.796875 74.519531 289.230469 72.835938 C 288.664062 71.148438 288.054688 69.480469 287.40625 67.824219 C 286.757812 66.171875 286.066406 64.53125 285.335938 62.914062 C 284.605469 61.292969 283.835938 59.691406 283.023438 58.109375 C 282.214844 56.527344 281.363281 54.96875 280.476562 53.429688 C 279.589844 51.886719 278.660156 50.371094 277.699219 48.878906 C 276.734375 47.386719 275.734375 45.917969 274.695312 44.472656 C 273.65625 43.03125 272.585938 41.613281 271.476562 40.222656 C 270.367188 38.835938 269.226562 37.472656 268.050781 36.140625 C 266.875 34.808594 265.667969 33.503906 264.425781 32.230469 C 263.183594 30.960938 261.914062 29.71875 260.609375 28.511719 C 259.308594 27.300781 257.976562 26.125 256.613281 24.980469 C 255.253906 23.839844 253.863281 22.730469 252.445312 21.660156 C 251.03125 20.585938 249.585938 19.546875 248.117188 18.546875 C 246.648438 17.542969 245.15625 16.582031 243.640625 15.652344 C 242.125 14.726562 240.585938 13.839844 239.023438 12.988281 C 237.464844 12.136719 235.882812 11.328125 234.28125 10.554688 C 232.679688 9.785156 231.058594 9.054688 229.421875 8.363281 C 227.785156 7.671875 226.128906 7.023438 224.460938 6.414062 C 222.789062 5.808594 221.105469 5.242188 219.40625 4.71875 C 217.707031 4.195312 216 3.710938 214.277344 3.273438 C 212.554688 2.835938 210.820312 2.4375 209.078125 2.085938 C 207.335938 1.734375 205.585938 1.425781 203.828125 1.160156 C 202.070312 0.894531 200.308594 0.675781 198.539062 0.5 C 196.773438 0.320312 195 0.1875 193.222656 0.101562 C 191.449219 0.0117188 189.671875 -0.03125 187.894531 -0.03125 C 186.117188 -0.03125 184.339844 0.0117188 182.566406 0.101562 C 180.792969 0.1875 179.019531 0.320312 177.25 0.5 C 175.480469 0.675781 173.71875 0.894531 171.960938 1.160156 C 170.203125 1.425781 168.453125 1.734375 166.710938 2.085938 C 164.96875 2.4375 163.238281 2.835938 161.515625 3.273438 C 159.792969 3.710938 158.082031 4.195312 156.382812 4.71875 C 154.683594 5.242188 153 5.808594 151.332031 6.414062 C 149.660156 7.023438 148.007812 7.671875 146.367188 8.363281 C 144.730469 9.054688 143.109375 9.785156 141.507812 10.554688 C 139.910156 11.328125 138.328125 12.136719 136.765625 12.988281 C 135.207031 13.839844 133.667969 14.726562 132.148438 15.652344 C 130.632812 16.582031 129.140625 17.542969 127.671875 18.546875 C 126.203125 19.546875 124.761719 20.585938 123.34375 21.660156 C 121.925781 22.730469 120.539062 23.839844 119.175781 24.980469 C 117.816406 26.125 116.484375 27.300781 115.179688 28.511719 C 113.878906 29.71875 112.605469 30.960938 111.363281 32.230469 C 110.125 33.503906 108.914062 34.808594 107.738281 36.140625 C 106.5625 37.472656 105.421875 38.835938 104.3125 40.222656 C 103.207031 41.613281 102.132812 43.03125 101.09375 44.472656 C 100.058594 45.917969 99.058594 47.386719 98.09375 48.878906 C 97.128906 50.371094 96.203125 51.886719 95.3125 53.429688 C 94.425781 54.96875 93.578125 56.527344 92.765625 58.109375 C 91.957031 59.691406 91.183594 61.292969 90.453125 62.914062 C 89.722656 64.53125 89.03125 66.171875 88.382812 67.824219 C 87.734375 69.480469 87.128906 71.148438 86.5625 72.835938 C 85.996094 74.519531 85.472656 76.21875 84.992188 77.929688 C 84.511719 79.640625 84.070312 81.363281 83.675781 83.09375 C 83.28125 84.828125 82.929688 86.570312 82.621094 88.320312 C 82.3125 90.070312 82.046875 91.828125 81.828125 93.589844 C 81.605469 95.355469 81.429688 97.121094 81.296875 98.894531 C 81.164062 100.667969 81.078125 102.441406 81.035156 104.21875 C 80.988281 105.996094 80.992188 107.773438 81.035156 109.550781 C 81.078125 111.328125 81.167969 113.101562 81.300781 114.875 C 81.433594 116.648438 81.613281 118.414062 81.832031 120.179688 C 82.054688 121.941406 82.320312 123.699219 82.628906 125.449219 C 82.9375 127.199219 83.292969 128.941406 83.6875 130.671875 C 84.082031 132.40625 84.523438 134.128906 85.003906 135.839844 C 85.484375 137.550781 86.011719 139.246094 86.578125 140.933594 C 87.144531 142.617188 87.75 144.285156 88.402344 145.941406 C 89.050781 147.597656 89.742188 149.234375 90.472656 150.851562 C 91.203125 152.472656 91.976562 154.074219 92.789062 155.65625 C 93.597656 157.238281 94.449219 158.796875 95.339844 160.335938 C 96.226562 161.875 97.152344 163.390625 98.117188 164.882812 C 99.082031 166.375 100.085938 167.84375 101.121094 169.285156 C 102.160156 170.730469 103.234375 172.144531 104.34375 173.535156 C 105.453125 174.925781 106.59375 176.285156 107.769531 177.617188 C 108.949219 178.949219 110.15625 180.253906 111.398438 181.523438 C 112.640625 182.796875 113.910156 184.035156 115.214844 185.246094 C 115.339844 185.566406 115.464844 185.890625 115.59375 186.183594 C 114.375 187.0625 113.335938 188.121094 112.476562 189.351562 L 35.09375 302.914062 C 32.476562 306.71875 30.484375 310.828125 29.109375 315.234375 C 27.738281 319.640625 27.046875 324.152344 27.039062 328.769531 C 27.046875 330.839844 27.195312 332.898438 27.480469 334.949219 C 27.765625 337 28.183594 339.023438 28.734375 341.019531 C 29.289062 343.015625 29.972656 344.964844 30.785156 346.867188 C 31.597656 348.773438 32.53125 350.613281 33.589844 352.394531 C 34.644531 354.175781 35.816406 355.875 37.101562 357.5 C 38.382812 359.125 39.769531 360.65625 41.257812 362.097656 C 42.742188 363.539062 44.320312 364.875 45.984375 366.105469 C 47.648438 367.335938 49.386719 368.449219 51.199219 369.449219 C 57.007812 372.605469 63.210938 374.410156 69.804688 374.863281 C 70.941406 374.933594 72.0625 375 73.167969 375 L 302.617188 375 C 303.714844 375 304.851562 374.933594 306.035156 374.859375 C 312.601562 374.402344 318.777344 372.605469 324.5625 369.460938 C 326.375 368.464844 328.117188 367.347656 329.785156 366.117188 C 331.449219 364.886719 333.027344 363.554688 334.515625 362.113281 C 336.003906 360.671875 337.394531 359.140625 338.675781 357.515625 C 339.960938 355.890625 341.132812 354.1875 342.191406 352.40625 C 343.25 350.625 344.1875 348.785156 345 346.878906 C 345.816406 344.972656 346.5 343.023438 347.050781 341.027344 C 347.605469 339.03125 348.023438 337.007812 348.308594 334.953125 C 348.59375 332.902344 348.742188 330.839844 348.753906 328.769531 C 348.742188 324.152344 348.054688 319.640625 346.679688 315.234375 C 345.308594 310.824219 343.3125 306.71875 340.699219 302.914062 Z M 114.308594 96.535156 C 113.785156 96.664062 113.296875 96.875 112.84375 97.167969 C 112.390625 97.460938 112 97.820312 111.667969 98.246094 C 111.335938 98.671875 111.078125 99.140625 110.902344 99.648438 C 110.726562 100.160156 110.640625 100.683594 110.640625 101.222656 L 110.640625 161.019531 C 110.640625 162.738281 110.738281 164.453125 110.867188 166.171875 C 109.949219 164.980469 109.058594 163.769531 108.195312 162.535156 C 107.335938 161.304688 106.503906 160.050781 105.699219 158.78125 C 104.894531 157.507812 104.121094 156.21875 103.378906 154.910156 C 102.636719 153.605469 101.921875 152.28125 101.242188 150.941406 C 100.558594 149.597656 99.90625 148.242188 99.289062 146.871094 C 98.667969 145.503906 98.082031 144.117188 97.527344 142.71875 C 96.972656 141.324219 96.449219 139.914062 95.960938 138.488281 C 95.472656 137.066406 95.015625 135.636719 94.589844 134.191406 C 94.167969 132.75 93.777344 131.296875 93.421875 129.835938 C 93.066406 128.375 92.746094 126.90625 92.457031 125.429688 C 92.171875 123.953125 91.917969 122.46875 91.699219 120.980469 C 91.480469 119.492188 91.296875 118 91.148438 116.503906 C 90.996094 115.007812 90.882812 113.507812 90.804688 112.007812 C 90.722656 110.503906 90.679688 109.003906 90.667969 107.5 C 90.65625 105.996094 90.683594 104.492188 90.742188 102.988281 C 90.800781 101.484375 90.898438 99.984375 91.027344 98.488281 C 91.15625 96.988281 91.320312 95.492188 91.519531 94.003906 C 91.714844 92.511719 91.949219 91.027344 92.21875 89.546875 C 92.484375 88.066406 92.785156 86.59375 93.121094 85.128906 C 93.457031 83.660156 93.828125 82.203125 94.230469 80.753906 C 94.636719 79.304688 95.070312 77.867188 95.542969 76.4375 C 96.011719 75.011719 96.515625 73.59375 97.050781 72.1875 C 97.589844 70.78125 98.15625 69.390625 98.757812 68.011719 C 99.359375 66.632812 99.988281 65.269531 100.652344 63.917969 C 101.316406 62.570312 102.011719 61.234375 102.738281 59.917969 C 103.464844 58.601562 104.222656 57.300781 105.007812 56.019531 C 105.792969 54.738281 106.609375 53.472656 107.453125 52.230469 C 108.296875 50.984375 109.171875 49.761719 110.074219 48.558594 C 110.976562 47.355469 111.902344 46.171875 112.859375 45.011719 C 113.816406 43.851562 114.800781 42.710938 115.808594 41.597656 C 116.816406 40.480469 117.851562 39.390625 118.914062 38.324219 C 119.972656 37.257812 121.054688 36.214844 122.164062 35.199219 C 123.273438 34.179688 124.40625 33.191406 125.558594 32.226562 C 126.710938 31.261719 127.890625 30.324219 129.085938 29.414062 C 130.285156 28.503906 131.503906 27.625 132.742188 26.769531 C 133.980469 25.917969 135.238281 25.09375 136.515625 24.300781 C 137.792969 23.503906 139.085938 22.738281 140.398438 22.003906 C 141.710938 21.269531 143.039062 20.566406 144.382812 19.894531 C 145.730469 19.21875 147.089844 18.578125 148.464844 17.96875 C 149.839844 17.359375 151.226562 16.78125 152.628906 16.234375 C 154.03125 15.691406 155.445312 15.175781 156.867188 14.695312 C 158.292969 14.21875 159.730469 13.769531 161.175781 13.355469 C 162.621094 12.945312 164.078125 12.5625 165.539062 12.21875 C 167.003906 11.871094 168.476562 11.5625 169.953125 11.285156 C 171.433594 11.007812 172.914062 10.761719 174.40625 10.554688 C 175.894531 10.34375 177.386719 10.171875 178.886719 10.03125 C 180.382812 9.894531 181.882812 9.789062 183.386719 9.71875 C 184.886719 9.648438 186.390625 9.613281 187.894531 9.613281 C 189.398438 9.613281 190.902344 9.648438 192.40625 9.71875 C 193.90625 9.789062 195.40625 9.894531 196.90625 10.03125 C 198.402344 10.171875 199.894531 10.34375 201.386719 10.554688 C 202.875 10.761719 204.359375 11.007812 205.835938 11.285156 C 207.316406 11.5625 208.785156 11.871094 210.25 12.21875 C 211.714844 12.5625 213.167969 12.945312 214.613281 13.355469 C 216.0625 13.769531 217.496094 14.21875 218.921875 14.695312 C 220.347656 15.175781 221.761719 15.691406 223.164062 16.234375 C 224.5625 16.78125 225.953125 17.359375 227.328125 17.96875 C 228.703125 18.578125 230.0625 19.21875 231.40625 19.894531 C 232.75 20.566406 234.082031 21.269531 235.394531 22.003906 C 236.707031 22.738281 238 23.503906 239.277344 24.300781 C 240.554688 25.09375 241.8125 25.917969 243.050781 26.769531 C 244.289062 27.625 245.507812 28.503906 246.703125 29.414062 C 247.902344 30.324219 249.078125 31.261719 250.230469 32.226562 C 251.386719 33.191406 252.519531 34.179688 253.625 35.199219 C 254.734375 36.214844 255.820312 37.257812 256.878906 38.324219 C 257.9375 39.390625 258.972656 40.480469 259.980469 41.597656 C 260.992188 42.710938 261.972656 43.851562 262.929688 45.011719 C 263.886719 46.171875 264.816406 47.355469 265.71875 48.558594 C 266.621094 49.761719 267.492188 50.984375 268.335938 52.230469 C 269.183594 53.472656 269.996094 54.738281 270.785156 56.019531 C 271.570312 57.300781 272.328125 58.601562 273.050781 59.917969 C 273.777344 61.234375 274.472656 62.570312 275.136719 63.917969 C 275.800781 65.269531 276.433594 66.632812 277.035156 68.011719 C 277.632812 69.390625 278.203125 70.78125 278.738281 72.1875 C 279.273438 73.59375 279.777344 75.011719 280.25 76.4375 C 280.71875 77.867188 281.15625 79.304688 281.558594 80.753906 C 281.964844 82.203125 282.332031 83.660156 282.667969 85.128906 C 283.003906 86.59375 283.304688 88.066406 283.574219 89.546875 C 283.839844 91.027344 284.074219 92.511719 284.273438 94.003906 C 284.472656 95.492188 284.636719 96.988281 284.765625 98.488281 C 284.894531 99.984375 284.988281 101.484375 285.046875 102.988281 C 285.109375 104.492188 285.132812 105.996094 285.121094 107.5 C 285.113281 109.003906 285.066406 110.503906 284.988281 112.007812 C 284.90625 113.507812 284.792969 115.007812 284.644531 116.503906 C 284.492188 118 284.308594 119.492188 284.089844 120.980469 C 283.871094 122.46875 283.621094 123.953125 283.332031 125.429688 C 283.042969 126.90625 282.722656 128.375 282.367188 129.835938 C 282.011719 131.296875 281.621094 132.75 281.199219 134.191406 C 280.777344 135.636719 280.320312 137.066406 279.832031 138.488281 C 279.339844 139.914062 278.820312 141.324219 278.261719 142.71875 C 277.707031 144.117188 277.121094 145.503906 276.503906 146.871094 C 275.882812 148.242188 275.230469 149.597656 274.550781 150.941406 C 273.867188 152.28125 273.15625 153.605469 272.410156 154.910156 C 271.667969 156.21875 270.894531 157.507812 270.089844 158.78125 C 269.289062 160.050781 268.457031 161.304688 267.59375 162.535156 C 266.734375 163.769531 265.84375 164.980469 264.925781 166.171875 C 265.058594 164.464844 265.152344 162.75 265.152344 161.019531 L 265.152344 101.222656 C 265.152344 100.683594 265.0625 100.160156 264.886719 99.648438 C 264.710938 99.140625 264.457031 98.671875 264.125 98.246094 C 263.792969 97.820312 263.398438 97.460938 262.945312 97.167969 C 262.492188 96.875 262.003906 96.664062 261.480469 96.535156 C 230.035156 88.742188 206.625 73.625 191.914062 51.597656 C 191.679688 51.285156 191.414062 51.003906 191.113281 50.753906 C 190.816406 50.503906 190.492188 50.292969 190.140625 50.117188 C 189.792969 49.941406 189.429688 49.808594 189.050781 49.71875 C 188.671875 49.628906 188.285156 49.585938 187.894531 49.585938 C 187.503906 49.585938 187.121094 49.628906 186.742188 49.71875 C 186.363281 49.808594 185.996094 49.941406 185.648438 50.117188 C 185.300781 50.292969 184.976562 50.503906 184.675781 50.753906 C 184.378906 51.003906 184.113281 51.285156 183.878906 51.597656 C 169.164062 73.625 145.757812 88.742188 114.308594 96.535156 Z M 242.597656 134.34375 L 231.816406 123.746094 C 231.085938 123.023438 230.296875 122.367188 229.449219 121.78125 C 228.605469 121.195312 227.714844 120.6875 226.777344 120.261719 C 225.84375 119.832031 224.875 119.488281 223.882812 119.226562 C 222.886719 118.96875 221.875 118.796875 220.847656 118.714844 C 219.824219 118.632812 218.796875 118.640625 217.773438 118.738281 C 216.75 118.835938 215.742188 119.023438 214.75 119.296875 C 213.757812 119.570312 212.796875 119.929688 211.867188 120.375 C 210.941406 120.816406 210.058594 121.335938 209.21875 121.9375 L 203.71875 125.859375 C 202.898438 126.433594 202.136719 127.074219 201.429688 127.777344 C 200.722656 128.484375 200.078125 129.242188 199.5 130.054688 C 198.921875 130.871094 198.417969 131.726562 197.984375 132.628906 C 197.554688 133.53125 197.203125 134.460938 196.929688 135.421875 C 196.65625 136.382812 196.46875 137.359375 196.363281 138.351562 C 196.257812 139.347656 196.238281 140.339844 196.300781 141.335938 C 196.367188 142.335938 196.515625 143.320312 196.75 144.289062 C 196.980469 145.261719 197.292969 146.207031 197.6875 147.125 L 204.324219 162.691406 C 205.789062 166.148438 206.722656 169.742188 207.132812 173.472656 L 210.445312 204.972656 L 210.222656 205.101562 C 209.546875 205.472656 208.910156 205.902344 208.308594 206.382812 C 207.707031 206.867188 207.152344 207.398438 206.644531 207.976562 C 206.136719 208.558594 205.683594 209.175781 205.285156 209.835938 C 204.882812 210.492188 204.542969 211.179688 204.261719 211.898438 C 203.984375 212.617188 203.769531 213.355469 203.617188 214.109375 C 203.464844 214.863281 203.378906 215.628906 203.363281 216.398438 C 203.34375 217.167969 203.390625 217.933594 203.507812 218.695312 C 203.621094 219.457031 203.804688 220.203125 204.046875 220.933594 C 204.046875 220.972656 204.066406 221.019531 204.082031 221.058594 C 202.46875 221.417969 200.8125 221.699219 199.164062 221.960938 C 198.804688 222.015625 198.441406 222.0625 198.078125 222.109375 C 196.726562 222.296875 195.367188 222.445312 194.003906 222.558594 L 192.941406 222.644531 C 189.570312 222.871094 186.195312 222.871094 182.824219 222.644531 C 182.476562 222.621094 182.136719 222.589844 181.789062 222.5625 C 180.410156 222.453125 179.039062 222.300781 177.671875 222.113281 C 177.320312 222.066406 176.972656 222.023438 176.621094 221.96875 C 174.96875 221.71875 173.320312 221.421875 171.691406 221.058594 C 171.890625 220.460938 172.046875 219.851562 172.167969 219.234375 L 172.167969 219.183594 C 172.292969 218.5 172.363281 217.8125 172.378906 217.117188 C 172.394531 216.421875 172.359375 215.734375 172.269531 215.042969 C 172.179688 214.355469 172.035156 213.679688 171.839844 213.015625 C 171.644531 212.347656 171.398438 211.703125 171.101562 211.074219 C 170.804688 210.445312 170.464844 209.84375 170.074219 209.269531 C 169.683594 208.695312 169.253906 208.15625 168.777344 207.648438 C 168.304688 207.140625 167.796875 206.675781 167.25 206.246094 C 166.703125 205.816406 166.125 205.433594 165.519531 205.097656 L 165.34375 204.972656 L 168.675781 173.492188 C 169.082031 169.765625 170.015625 166.171875 171.476562 162.714844 L 178.109375 147.125 C 178.507812 146.207031 178.820312 145.261719 179.054688 144.289062 C 179.289062 143.320312 179.4375 142.335938 179.503906 141.339844 C 179.566406 140.339844 179.546875 139.347656 179.441406 138.351562 C 179.335938 137.359375 179.148438 136.382812 178.875 135.421875 C 178.605469 134.460938 178.253906 133.53125 177.820312 132.628906 C 177.390625 131.726562 176.882812 130.871094 176.304688 130.054688 C 175.726562 129.242188 175.085938 128.480469 174.375 127.777344 C 173.667969 127.074219 172.90625 126.433594 172.085938 125.859375 L 166.578125 121.929688 C 165.742188 121.332031 164.859375 120.8125 163.929688 120.367188 C 163 119.925781 162.042969 119.566406 161.050781 119.292969 C 160.058594 119.015625 159.050781 118.832031 158.027344 118.730469 C 157.003906 118.632812 155.980469 118.625 154.953125 118.707031 C 153.929688 118.789062 152.917969 118.960938 151.921875 119.21875 C 150.925781 119.480469 149.960938 119.824219 149.027344 120.25 C 148.089844 120.679688 147.199219 121.1875 146.355469 121.773438 C 145.507812 122.355469 144.71875 123.011719 143.988281 123.734375 L 133.175781 134.34375 C 131.550781 135.945312 130.113281 137.703125 128.859375 139.609375 C 127.609375 141.515625 126.570312 143.535156 125.746094 145.664062 C 124.917969 147.789062 124.324219 149.980469 123.964844 152.234375 C 123.601562 154.488281 123.480469 156.753906 123.597656 159.035156 L 124.84375 183.320312 C 124.523438 182.53125 124.179688 181.695312 123.84375 180.792969 C 121.480469 174.410156 120.296875 167.816406 120.296875 161.007812 L 120.296875 104.953125 C 149.683594 97.027344 172.375 82.796875 187.894531 62.578125 C 203.414062 82.796875 226.109375 97.03125 255.484375 104.964844 L 255.484375 161.019531 C 255.488281 167.816406 254.3125 174.402344 251.960938 180.78125 C 251.617188 181.695312 251.28125 182.539062 250.945312 183.335938 L 252.191406 159.054688 C 252.3125 156.773438 252.1875 154.503906 251.824219 152.246094 C 251.464844 149.992188 250.867188 147.800781 250.042969 145.671875 C 249.214844 143.542969 248.175781 141.523438 246.921875 139.613281 C 245.664062 137.703125 244.226562 135.945312 242.597656 134.34375 Z M 242.542969 158.546875 L 241.050781 187.84375 L 225.394531 196.625 C 225.261719 196.683594 225.136719 196.75 225.011719 196.816406 L 219.648438 199.824219 L 216.75 172.441406 C 216.242188 167.757812 215.070312 163.25 213.234375 158.910156 L 206.582031 143.34375 C 206.402344 142.929688 206.261719 142.5 206.15625 142.0625 C 206.050781 141.625 205.984375 141.179688 205.957031 140.726562 C 205.925781 140.277344 205.9375 139.828125 205.984375 139.378906 C 206.035156 138.929688 206.121094 138.488281 206.242188 138.050781 C 206.367188 137.617188 206.527344 137.199219 206.722656 136.789062 C 206.917969 136.382812 207.148438 135.996094 207.410156 135.628906 C 207.671875 135.261719 207.960938 134.917969 208.28125 134.597656 C 208.605469 134.28125 208.949219 133.992188 209.320312 133.734375 L 214.828125 129.804688 C 215.199219 129.542969 215.589844 129.316406 215.996094 129.121094 C 216.117188 129.0625 216.238281 129.023438 216.359375 128.972656 C 216.644531 128.847656 216.9375 128.742188 217.234375 128.648438 C 217.382812 128.609375 217.535156 128.582031 217.683594 128.546875 C 217.957031 128.484375 218.238281 128.433594 218.515625 128.398438 C 218.675781 128.378906 218.839844 128.371094 218.996094 128.359375 C 219.242188 128.359375 219.488281 128.359375 219.730469 128.359375 C 220.007812 128.371094 220.28125 128.398438 220.554688 128.4375 C 220.757812 128.464844 220.960938 128.496094 221.164062 128.539062 C 221.445312 128.609375 221.722656 128.691406 221.996094 128.785156 C 222.179688 128.851562 222.371094 128.90625 222.550781 128.980469 C 222.847656 129.117188 223.136719 129.265625 223.417969 129.4375 C 223.5625 129.519531 223.714844 129.585938 223.851562 129.683594 C 224.277344 129.96875 224.671875 130.289062 225.035156 130.652344 L 235.8125 141.242188 C 236.382812 141.808594 236.921875 142.402344 237.425781 143.027344 C 239.214844 145.207031 240.546875 147.632812 241.429688 150.3125 C 242.3125 152.988281 242.683594 155.734375 242.542969 158.546875 Z M 223.726562 265.207031 C 223.386719 265.457031 223.046875 265.726562 222.710938 265.964844 C 222.023438 266.460938 221.332031 266.933594 220.648438 267.402344 C 219.761719 268.003906 218.875 268.582031 217.988281 269.132812 C 217.304688 269.5625 216.617188 269.976562 215.933594 270.375 C 215.042969 270.890625 214.15625 271.378906 213.269531 271.847656 C 212.59375 272.207031 211.914062 272.5625 211.234375 272.890625 C 210.339844 273.324219 209.449219 273.722656 208.550781 274.109375 C 207.886719 274.394531 207.214844 274.6875 206.546875 274.949219 C 205.636719 275.304688 204.730469 275.59375 203.820312 275.914062 C 203.175781 276.128906 202.53125 276.363281 201.886719 276.558594 C 200.941406 276.832031 199.996094 277.054688 199.050781 277.273438 C 198.441406 277.417969 197.832031 277.597656 197.21875 277.703125 C 196.183594 277.90625 195.148438 278.023438 194.113281 278.171875 C 193.59375 278.242188 193.074219 278.339844 192.558594 278.390625 C 191.03125 278.539062 189.503906 278.621094 187.972656 278.625 L 187.765625 278.625 C 186.261719 278.625 184.757812 278.546875 183.257812 278.394531 C 182.726562 278.34375 182.195312 278.242188 181.664062 278.171875 C 180.644531 278.039062 179.621094 277.90625 178.597656 277.707031 C 177.976562 277.582031 177.351562 277.417969 176.726562 277.269531 C 175.796875 277.050781 174.867188 276.835938 173.9375 276.5625 C 173.273438 276.371094 172.613281 276.132812 171.949219 275.917969 C 171.050781 275.617188 170.160156 275.316406 169.261719 274.953125 C 168.582031 274.6875 167.902344 274.386719 167.222656 274.09375 C 166.339844 273.714844 165.460938 273.324219 164.582031 272.894531 C 163.890625 272.574219 163.199219 272.203125 162.507812 271.835938 C 161.632812 271.375 160.757812 270.890625 159.878906 270.382812 C 159.1875 269.980469 158.496094 269.558594 157.800781 269.128906 C 156.917969 268.578125 156.039062 268.003906 155.160156 267.40625 C 154.472656 266.941406 153.777344 266.460938 153.089844 265.964844 C 152.765625 265.722656 152.410156 265.453125 152.070312 265.203125 L 167.757812 230.054688 C 168.078125 230.136719 168.433594 230.195312 168.765625 230.273438 C 169.453125 230.433594 170.140625 230.578125 170.832031 230.71875 C 171.988281 230.960938 173.15625 231.171875 174.328125 231.363281 C 175.089844 231.488281 175.851562 231.609375 176.617188 231.710938 C 177.753906 231.867188 178.894531 231.980469 180.039062 232.085938 C 180.800781 232.160156 181.566406 232.246094 182.335938 232.296875 C 183.777344 232.390625 185.234375 232.433594 186.671875 232.453125 C 187.082031 232.453125 187.492188 232.5 187.90625 232.5 C 188.316406 232.5 188.722656 232.460938 189.136719 232.453125 C 190.582031 232.433594 192.035156 232.390625 193.476562 232.296875 C 194.25 232.246094 195.015625 232.160156 195.785156 232.085938 C 196.921875 231.980469 198.039062 231.867188 199.1875 231.710938 C 199.957031 231.609375 200.722656 231.488281 201.492188 231.363281 C 202.660156 231.171875 203.820312 230.953125 204.972656 230.71875 C 205.667969 230.574219 206.355469 230.433594 207.046875 230.269531 C 207.367188 230.191406 207.71875 230.136719 208.054688 230.050781 Z M 162.566406 158.945312 C 160.734375 163.285156 159.5625 167.796875 159.054688 172.476562 L 156.15625 199.84375 L 134.753906 187.855469 L 133.25 158.539062 C 133.164062 156.933594 133.25 155.339844 133.507812 153.757812 C 133.890625 151.382812 134.632812 149.125 135.734375 146.984375 C 136.835938 144.84375 138.242188 142.929688 139.949219 141.238281 L 150.75 130.632812 C 151.078125 130.304688 151.433594 130.007812 151.816406 129.742188 C 152.199219 129.480469 152.601562 129.25 153.023438 129.054688 C 153.445312 128.863281 153.878906 128.707031 154.328125 128.589844 C 154.78125 128.472656 155.234375 128.394531 155.699219 128.355469 C 156.160156 128.316406 156.625 128.320312 157.085938 128.363281 C 157.550781 128.410156 158.003906 128.492188 158.453125 128.617188 C 158.898438 128.738281 159.332031 128.898438 159.753906 129.101562 C 160.171875 129.300781 160.570312 129.535156 160.949219 129.804688 L 166.464844 133.738281 C 166.835938 133.996094 167.179688 134.285156 167.5 134.601562 C 167.820312 134.921875 168.109375 135.261719 168.371094 135.628906 C 168.632812 135.996094 168.863281 136.386719 169.058594 136.792969 C 169.253906 137.199219 169.414062 137.617188 169.535156 138.050781 C 169.660156 138.484375 169.746094 138.925781 169.792969 139.375 C 169.84375 139.824219 169.851562 140.273438 169.824219 140.722656 C 169.792969 141.175781 169.726562 141.617188 169.625 142.058594 C 169.519531 142.496094 169.378906 142.921875 169.199219 143.335938 Z M 73.171875 365.335938 C 72.273438 365.335938 71.34375 365.273438 70.464844 365.21875 C 65.269531 364.863281 60.382812 363.441406 55.808594 360.949219 C 54.375 360.160156 52.996094 359.277344 51.679688 358.304688 C 50.363281 357.332031 49.117188 356.273438 47.941406 355.136719 C 46.765625 353.996094 45.667969 352.785156 44.652344 351.5 C 43.636719 350.214844 42.710938 348.867188 41.875 347.460938 C 41.039062 346.050781 40.300781 344.59375 39.65625 343.085938 C 39.015625 341.582031 38.476562 340.039062 38.039062 338.460938 C 37.601562 336.882812 37.269531 335.28125 37.046875 333.660156 C 36.824219 332.035156 36.707031 330.40625 36.699219 328.769531 C 36.710938 325.125 37.257812 321.5625 38.34375 318.082031 C 39.433594 314.601562 41.011719 311.363281 43.078125 308.359375 L 120.460938 194.800781 C 121.042969 193.941406 121.84375 193.421875 122.863281 193.238281 C 123.21875 193.175781 123.578125 193.164062 123.9375 193.210938 C 124.039062 193.210938 124.140625 193.230469 124.257812 193.25 C 124.617188 193.3125 124.957031 193.429688 125.28125 193.601562 L 127.71875 194.96875 L 157.835938 211.847656 L 160.816406 213.511719 C 161.160156 213.707031 161.464844 213.949219 161.734375 214.238281 C 162.128906 214.660156 162.414062 215.148438 162.585938 215.703125 C 162.753906 216.257812 162.792969 216.820312 162.699219 217.394531 C 162.644531 217.699219 162.550781 217.996094 162.425781 218.28125 L 160.621094 222.308594 L 141.675781 264.769531 L 106.460938 343.703125 C 105.75 345.300781 104.925781 346.84375 103.992188 348.324219 C 103.054688 349.808594 102.019531 351.214844 100.882812 352.546875 C 99.746094 353.882812 98.515625 355.125 97.199219 356.28125 C 95.882812 357.4375 94.488281 358.492188 93.019531 359.445312 C 91.550781 360.402344 90.019531 361.246094 88.429688 361.980469 C 86.839844 362.714844 85.203125 363.332031 83.523438 363.828125 C 81.84375 364.328125 80.136719 364.703125 78.402344 364.957031 C 76.667969 365.207031 74.925781 365.335938 73.171875 365.335938 Z M 101.398438 365.335938 C 101.515625 365.246094 101.617188 365.132812 101.71875 365.042969 C 102.972656 364.050781 104.171875 363 105.316406 361.886719 C 105.441406 361.769531 105.570312 361.65625 105.691406 361.535156 C 106.863281 360.359375 107.964844 359.128906 109 357.835938 C 109.199219 357.582031 109.398438 357.339844 109.597656 357.085938 C 110.605469 355.789062 111.542969 354.4375 112.402344 353.035156 C 112.554688 352.789062 112.691406 352.539062 112.839844 352.289062 C 113.734375 350.789062 114.542969 349.242188 115.261719 347.652344 L 148.019531 274.265625 C 148.136719 274.347656 148.253906 274.417969 148.371094 274.5 C 148.921875 274.886719 149.472656 275.226562 150.023438 275.597656 C 151.238281 276.414062 152.453125 277.207031 153.671875 277.960938 C 154.351562 278.371094 155.027344 278.742188 155.707031 279.128906 C 156.800781 279.753906 157.894531 280.367188 158.988281 280.929688 C 159.714844 281.296875 160.441406 281.640625 161.164062 281.984375 C 162.21875 282.484375 163.277344 282.949219 164.328125 283.398438 C 165.070312 283.707031 165.808594 284.003906 166.546875 284.28125 C 167.601562 284.679688 168.65625 285.046875 169.710938 285.378906 C 170.441406 285.617188 171.167969 285.851562 171.898438 286.058594 C 172.988281 286.363281 174.078125 286.625 175.171875 286.867188 C 175.859375 287.023438 176.546875 287.191406 177.234375 287.324219 C 178.441406 287.546875 179.644531 287.710938 180.851562 287.859375 C 181.421875 287.933594 181.988281 288.035156 182.558594 288.085938 C 186.117188 288.421875 189.671875 288.421875 193.230469 288.085938 C 193.792969 288.035156 194.355469 287.933594 194.917969 287.863281 C 196.132812 287.710938 197.351562 287.542969 198.566406 287.320312 C 199.242188 287.195312 199.914062 287.027344 200.59375 286.875 C 201.695312 286.625 202.800781 286.367188 203.90625 286.050781 C 204.621094 285.851562 205.335938 285.617188 206.054688 285.40625 C 207.121094 285.0625 208.191406 284.695312 209.277344 284.292969 C 210.003906 284.015625 210.734375 283.722656 211.464844 283.421875 C 212.523438 282.980469 213.585938 282.5 214.648438 281.996094 C 215.371094 281.65625 216.097656 281.3125 216.824219 280.941406 C 217.902344 280.386719 218.984375 279.785156 220.066406 279.164062 C 220.761719 278.769531 221.460938 278.386719 222.15625 277.964844 C 223.3125 277.257812 224.472656 276.492188 225.628906 275.707031 C 226.246094 275.296875 226.859375 274.914062 227.476562 274.480469 C 227.578125 274.410156 227.683594 274.347656 227.796875 274.273438 L 260.511719 347.648438 C 261.234375 349.246094 262.042969 350.796875 262.941406 352.300781 C 263.085938 352.542969 263.21875 352.785156 263.367188 353.023438 C 264.234375 354.433594 265.171875 355.789062 266.183594 357.09375 C 266.375 357.339844 266.570312 357.582031 266.769531 357.820312 C 267.808594 359.121094 268.914062 360.359375 270.085938 361.535156 C 270.207031 361.65625 270.332031 361.761719 270.453125 361.882812 C 271.605469 363 272.808594 364.058594 274.070312 365.050781 C 274.183594 365.136719 274.28125 365.25 274.394531 365.335938 Z M 319.953125 360.964844 C 315.402344 363.441406 310.542969 364.855469 305.375 365.214844 C 304.449219 365.273438 303.519531 365.335938 302.617188 365.335938 C 300.867188 365.332031 299.125 365.207031 297.390625 364.953125 C 295.65625 364.703125 293.953125 364.328125 292.273438 363.828125 C 290.59375 363.328125 288.960938 362.714844 287.367188 361.980469 C 285.777344 361.246094 284.25 360.402344 282.78125 359.449219 C 281.3125 358.492188 279.917969 357.4375 278.601562 356.285156 C 277.285156 355.128906 276.058594 353.886719 274.921875 352.554688 C 273.78125 351.222656 272.746094 349.816406 271.8125 348.335938 C 270.875 346.855469 270.050781 345.3125 269.339844 343.714844 L 234.128906 264.785156 L 215.183594 222.324219 L 213.375 218.292969 C 213.253906 218.015625 213.164062 217.726562 213.109375 217.429688 C 213.046875 217.046875 213.042969 216.667969 213.09375 216.285156 C 213.148438 215.902344 213.261719 215.539062 213.425781 215.191406 C 213.59375 214.839844 213.808594 214.527344 214.070312 214.242188 C 214.332031 213.960938 214.632812 213.726562 214.96875 213.535156 L 217.964844 211.859375 L 229.4375 205.414062 C 229.570312 205.359375 229.695312 205.292969 229.820312 205.222656 L 246.722656 195.742188 C 246.773438 195.742188 246.820312 195.6875 246.875 195.675781 C 247.429688 195.542969 247.945312 195.320312 248.421875 195.007812 L 250.4375 193.65625 C 251.222656 193.199219 252.0625 193.066406 252.953125 193.253906 C 253.960938 193.4375 254.753906 193.957031 255.324219 194.808594 L 332.707031 308.371094 C 334.777344 311.371094 336.351562 314.613281 337.441406 318.09375 C 338.527344 321.570312 339.074219 325.132812 339.085938 328.777344 C 339.078125 330.417969 338.960938 332.046875 338.734375 333.671875 C 338.511719 335.292969 338.179688 336.894531 337.742188 338.472656 C 337.304688 340.054688 336.761719 341.59375 336.121094 343.101562 C 335.476562 344.609375 334.734375 346.066406 333.898438 347.476562 C 333.0625 348.882812 332.136719 350.230469 331.117188 351.515625 C 330.101562 352.800781 329.003906 354.011719 327.828125 355.152344 C 326.648438 356.292969 325.402344 357.347656 324.085938 358.320312 C 322.765625 359.292969 321.390625 360.175781 319.953125 360.964844 Z M 319.953125 360.964844 " fill-opacity="1" fill-rule="nonzero"/></svg>