<svg xmlns="http://www.w3.org/2000/svg" xmlns:xlink="http://www.w3.org/1999/xlink" width="500" zoomAndPan="magnify" viewBox="0 0 375 374.999991" height="500" preserveAspectRatio="xMidYMid meet" version="1.0"><path fill="#0c228a" d="M 47.226562 44.160156 C 50.386719 49.941406 53.207031 55.832031 55.8125 61.800781 C 58.445312 67.757812 60.925781 73.765625 63.21875 79.839844 L 57.390625 78.25 C 60.894531 74.925781 64.535156 71.773438 68.15625 68.582031 C 71.734375 65.351562 75.503906 62.34375 79.1875 59.234375 L 83.273438 55.78125 L 85.328125 60.695312 C 86.828125 64.3125 88.09375 68.027344 89.488281 71.683594 C 90.886719 75.347656 92.070312 79.097656 93.367188 82.796875 C 94.550781 86.550781 95.800781 90.265625 96.851562 94.070312 C 97.964844 97.855469 98.964844 101.675781 99.832031 105.558594 C 97.679688 102.214844 95.660156 98.816406 93.757812 95.367188 C 91.792969 91.945312 90.023438 88.441406 88.1875 84.960938 C 86.46875 81.4375 84.628906 77.960938 83.007812 74.390625 C 81.386719 70.832031 79.636719 67.316406 78.125 63.707031 L 84.261719 65.164062 C 80.625 68.328125 77.074219 71.59375 73.332031 74.636719 C 69.632812 77.726562 65.953125 80.84375 62.136719 83.792969 L 57.804688 87.140625 L 56.308594 82.199219 C 54.421875 75.984375 52.726562 69.710938 51.179688 63.382812 C 49.609375 57.058594 48.242188 50.667969 47.226562 44.160156 Z M 326.144531 49.53125 C 322.53125 50.609375 318.988281 51.875 315.417969 53.054688 C 311.839844 54.207031 308.335938 55.5625 304.796875 56.816406 L 300.101562 58.472656 L 303.367188 62.652344 C 306.335938 66.457031 309.480469 70.109375 312.5625 73.816406 C 315.613281 77.542969 318.839844 81.132812 322.011719 84.757812 L 323.316406 78.660156 C 315.109375 82.632812 307.03125 86.878906 299.03125 91.289062 C 291.0625 95.765625 283.152344 100.359375 275.515625 105.554688 C 284.382812 102.972656 292.957031 99.78125 301.472656 96.472656 C 309.972656 93.101562 318.378906 89.5625 326.664062 85.757812 L 331.300781 83.625 L 327.972656 79.65625 C 324.867188 75.964844 321.8125 72.230469 318.597656 68.640625 C 315.402344 65.027344 312.28125 61.359375 308.976562 57.84375 L 307.550781 63.675781 C 310.964844 62.136719 314.4375 60.695312 317.820312 59.054688 C 321.210938 57.433594 324.644531 55.898438 328 54.179688 C 334.757812 50.867188 341.441406 47.351562 347.96875 43.472656 C 340.574219 45.183594 333.316406 47.257812 326.144531 49.53125 Z M 158.660156 24.902344 C 157.871094 28.890625 157.296875 32.902344 156.609375 36.902344 C 155.917969 40.902344 155.421875 44.925781 154.820312 48.933594 L 154.09375 53.765625 L 159.230469 52.996094 C 164.003906 52.277344 168.726562 51.324219 173.476562 50.472656 C 178.222656 49.644531 182.9375 48.644531 187.660156 47.667969 L 182.980469 43.589844 C 182.511719 53.445312 182.375 63.320312 182.417969 73.203125 C 182.519531 83.085938 182.773438 92.980469 183.710938 102.914062 C 185.707031 93.140625 187.03125 83.332031 188.199219 73.511719 C 189.3125 63.695312 190.242188 53.867188 190.84375 44.019531 L 191.144531 39.027344 L 186.15625 39.9375 C 181.414062 40.808594 176.667969 41.652344 171.953125 42.671875 C 167.238281 43.667969 162.5 44.5625 157.808594 45.6875 L 162.222656 49.75 C 162.503906 45.707031 162.898438 41.671875 163.089844 37.621094 C 163.28125 33.570312 163.59375 29.527344 163.691406 25.460938 C 164.007812 17.34375 164.125 9.210938 163.832031 1.027344 C 161.765625 8.945312 160.113281 16.910156 158.660156 24.902344 Z M 156.035156 114.65625 C 151.355469 107.871094 148.960938 91.589844 142.617188 85.304688 C 136.285156 79.023438 127.550781 77.554688 123.121094 82.03125 C 118.683594 86.5 120.230469 95.230469 126.5625 101.511719 C 132.90625 107.792969 148.960938 109.453125 156.035156 114.65625 Z M 223.421875 116.148438 C 230.710938 110.691406 247.007812 106.285156 254.03125 99.265625 C 261.050781 92.242188 263.671875 83.480469 259.882812 79.691406 C 256.101562 75.90625 247.332031 78.527344 240.3125 85.546875 C 233.292969 92.566406 229.496094 108.542969 223.421875 116.148438 Z M 210.488281 114.597656 C 212.886719 108.703125 221.066406 100.183594 222.738281 93.445312 C 224.414062 86.707031 222.824219 80.515625 219.1875 79.613281 C 215.554688 78.707031 211.25 83.441406 209.574219 90.175781 C 207.898438 96.914062 211.382812 107.855469 210.488281 114.597656 Z M 365.476562 242.105469 C 361.695312 248.421875 354.855469 252.699219 346.964844 252.699219 L 256.65625 252.699219 L 256.65625 346.28125 C 256.65625 361.707031 239.996094 374.214844 219.4375 374.214844 L 154.929688 374.214844 C 134.371094 374.214844 117.707031 361.703125 117.707031 346.28125 L 117.707031 252.695312 L 28.035156 252.695312 C 20.140625 252.695312 13.304688 248.421875 9.523438 242.109375 C 9.28125 241.753906 9.128906 241.363281 8.917969 240.992188 C 8.628906 240.445312 8.289062 239.925781 8.054688 239.355469 C 4.261719 231.316406 5.605469 221.46875 12.246094 214.820312 L 99.824219 127.246094 C 108.277344 118.792969 121.992188 118.792969 130.4375 127.246094 C 138.898438 135.699219 138.898438 149.410156 130.4375 157.863281 L 78.910156 209.394531 L 151.882812 209.394531 C 152.8125 209.394531 153.695312 209.554688 154.59375 209.664062 C 143.125 200.1875 135.820312 185.855469 135.820312 169.820312 C 135.820312 141.273438 158.957031 118.136719 187.5 118.136719 C 216.042969 118.136719 239.1875 141.273438 239.1875 169.820312 C 239.1875 185.855469 231.878906 200.183594 220.414062 209.664062 C 221.304688 209.550781 222.179688 209.394531 223.09375 209.394531 L 296.082031 209.394531 L 244.558594 157.867188 C 236.105469 149.414062 236.105469 135.703125 244.558594 127.25 C 253.011719 118.796875 266.726562 118.796875 275.175781 127.25 L 362.753906 214.828125 C 369.394531 221.46875 370.738281 231.320312 366.953125 239.347656 C 366.695312 239.953125 366.347656 240.5 366.042969 241.074219 C 365.84375 241.414062 365.703125 241.773438 365.476562 242.105469 Z M 216.476562 163.601562 C 218.035156 169.167969 221.875 172.957031 225.050781 172.070312 C 228.222656 171.183594 229.527344 165.945312 227.96875 160.382812 C 226.402344 154.816406 219.097656 148.410156 216.9375 143.167969 C 217.59375 148.429688 214.917969 158.035156 216.476562 163.601562 Z M 156.628906 179.054688 C 157.464844 174.65625 154.609375 167.707031 154.917969 163.328125 C 153.558594 167.203125 148.398438 172.933594 147.5625 177.328125 C 146.726562 181.71875 148.082031 185.671875 150.585938 186.144531 C 153.089844 186.621094 155.792969 183.445312 156.628906 179.054688 Z M 156.628906 179.054688 " fill-opacity="1" fill-rule="nonzero"/></svg>