<svg xmlns="http://www.w3.org/2000/svg" xmlns:xlink="http://www.w3.org/1999/xlink" width="500" zoomAndPan="magnify" viewBox="0 0 375 374.999991" height="500" preserveAspectRatio="xMidYMid meet" version="1.0"><path fill="#0c228a" d="M 289.136719 89.609375 C 321.597656 94.445312 307.90625 174.332031 311.222656 198.710938 C 303.183594 205.300781 254.652344 188.496094 260.46875 177.304688 C 244.058594 167.089844 228.65625 149.292969 215.414062 136.332031 C 229.042969 118.027344 244.566406 150.664062 255.363281 157.496094 C 260.6875 161.179688 259.0625 167.394531 259.40625 172.660156 C 266.886719 160.949219 254.761719 130.796875 248.253906 115.480469 C 247.707031 114.351562 245.625 115.09375 246.222656 116.246094 C 252.703125 129.191406 256.882812 143.339844 258.5625 157.8125 C 247.632812 148.128906 239.636719 135.042969 225.441406 128.074219 C 216.300781 127.820312 214.882812 139.441406 205.675781 131 C 220.25 121.898438 237.835938 113.355469 255.578125 111.03125 C 239.035156 108.445312 209.890625 122.886719 204.054688 132.425781 C 225.496094 142.523438 236.398438 166.804688 258.035156 177.542969 C 256.203125 183.800781 262.402344 188.5625 268.003906 190.578125 C 281.097656 195.335938 300.324219 208.546875 313.417969 199.285156 C 311.386719 180.253906 321.804688 80.414062 289.136719 89.609375 " fill-opacity="1" fill-rule="nonzero"/><path fill="#0c228a" d="M 165.015625 133.28125 C 159.738281 136.460938 191.871094 130.363281 194.519531 130.492188 C 186.476562 127.097656 173.953125 130.917969 165.015625 133.28125 " fill-opacity="1" fill-rule="nonzero"/><path fill="#0c228a" d="M 143.300781 151.792969 C 145.382812 150.039062 140.75 147.59375 142.429688 145.265625 C 143.003906 142.898438 145.707031 140.953125 147.871094 140.121094 C 150.121094 136.132812 142.765625 140.03125 142.359375 142.269531 C 143.03125 134.378906 143.15625 124.640625 154.230469 122.542969 C 152.921875 125.617188 153.273438 140.472656 157.304688 136.78125 C 148.058594 117.050781 171.460938 117.15625 187.3125 114.796875 C 210.171875 109.269531 225.988281 90.855469 249.097656 87.460938 C 260.453125 83.964844 271.675781 92.882812 281.382812 90.789062 C 265.957031 81.496094 238.527344 93.421875 239.539062 70.148438 C 249.261719 79.839844 244.730469 64.738281 248.054688 64.703125 C 253.519531 64.832031 252.953125 74.710938 251.90625 78.15625 C 246.257812 73.011719 243.6875 75.765625 250.488281 79.628906 C 249.628906 86.425781 257.199219 75.96875 254.957031 73.054688 C 256.191406 65.140625 244.414062 56.398438 244.597656 68.648438 C 244.03125 75.84375 237.316406 60.742188 233.160156 63.621094 C 233.148438 62.191406 230.886719 58.679688 230.234375 61.777344 C 232.71875 69.75 234.148438 69.816406 234.757812 69.84375 C 238.53125 68.835938 233.921875 67.445312 233.722656 65.078125 C 235.621094 65.800781 237.292969 67.195312 238.414062 68.964844 C 240.179688 99.070312 252.488281 77.132812 214.410156 100.171875 C 198.527344 114.824219 169.179688 111.367188 153.949219 121.417969 C 141.644531 119.027344 135.0625 146.347656 143.300781 151.792969 " fill-opacity="1" fill-rule="nonzero"/><path fill="#0c228a" d="M 155.207031 145.640625 C 157.148438 149 152.539062 145.605469 151.042969 144.816406 C 152.003906 144.34375 152.914062 143.804688 153.773438 143.179688 C 152.410156 143.789062 154.359375 144.398438 155.207031 145.640625 Z M 154.582031 149.828125 C 152.582031 150.65625 145.289062 148.144531 149.390625 145.902344 C 150.636719 144.804688 155.53125 148.164062 154.582031 149.828125 Z M 157.316406 139.925781 C 158.515625 135.429688 145.230469 145.816406 146.21875 148.027344 C 144.925781 150.1875 152.222656 150.597656 151.988281 152.972656 C 151.636719 154.550781 145.726562 150.996094 143.6875 152.203125 C 147.167969 154.855469 157.480469 155.089844 150.933594 150.417969 C 156.265625 153.183594 157.277344 147.148438 156.082031 145.050781 C 152.535156 142.507812 155.65625 142.28125 157.316406 139.925781 " fill-opacity="1" fill-rule="nonzero"/><path fill="#0c228a" d="M 142.046875 146.125 C 141.972656 146.125 142.125 146.136719 142.046875 146.125 " fill-opacity="1" fill-rule="nonzero"/><path fill="#0c228a" d="M 231.363281 57.089844 C 233.910156 53.667969 232.726562 47.027344 236.84375 43.6875 C 240.265625 42.707031 239.371094 38.21875 242.578125 37.652344 C 247.621094 36.550781 252.296875 31.742188 257.789062 30.910156 C 265.484375 27.996094 281.746094 33.054688 277.375 40.105469 C 279.328125 41.105469 280.792969 38.167969 282.632812 38.34375 C 283.476562 40.386719 284.070312 43.128906 280.859375 43.867188 C 279.070312 45.445312 282.789062 46.195312 283.738281 45.1875 C 292.078125 50.734375 285.570312 62.742188 284.730469 69.949219 C 283.582031 75.789062 288.179688 82 283.332031 86.988281 C 280.628906 84.027344 273.777344 80.160156 270.230469 81.191406 C 277.050781 82.148438 285.996094 91.375 284.007812 87.964844 C 291.59375 85.066406 285.597656 75.570312 286.941406 69.972656 C 292.15625 56.183594 289.308594 50.40625 284.96875 38.460938 C 284.683594 37.644531 284.464844 36.710938 284.328125 35.871094 C 277.328125 36.4375 269.511719 23.527344 257.214844 29.0625 C 250.738281 31.308594 244.109375 34.195312 238.777344 37.921875 C 235.566406 43.53125 226.996094 50.605469 231.363281 57.089844 " fill-opacity="1" fill-rule="nonzero"/><path fill="#0c228a" d="M 268.820312 81.679688 C 273.578125 79.519531 261.550781 68.738281 258.699219 72.445312 C 263.375 72.386719 269.59375 78 268.820312 81.679688 " fill-opacity="1" fill-rule="nonzero"/><path fill="#0c228a" d="M 196.335938 229.980469 C 191.535156 226.914062 195.859375 238.789062 197.28125 240.734375 C 198.691406 242.46875 194.949219 242.425781 194.007812 243.632812 C 192.828125 245.882812 195.820312 245.132812 197.09375 244.21875 C 203.6875 241.722656 194.929688 234.636719 196.335938 229.980469 " fill-opacity="1" fill-rule="nonzero"/><path fill="#0c228a" d="M 301.554688 218.605469 C 297.171875 220.757812 292.09375 221.363281 288.121094 221.195312 C 289.304688 224.015625 303.746094 220.375 301.554688 218.605469 " fill-opacity="1" fill-rule="nonzero"/><path fill="#0c228a" d="M 263.859375 221.734375 C 263.886719 224.507812 277.523438 224.289062 280.980469 222.386719 C 275.574219 222.292969 269.433594 223.316406 263.859375 221.734375 " fill-opacity="1" fill-rule="nonzero"/><path fill="#0c228a" d="M 283.847656 59.757812 C 286.582031 58.90625 283.835938 49.113281 282.082031 51.660156 C 284.386719 53.839844 283.246094 57.441406 283.847656 59.757812 " fill-opacity="1" fill-rule="nonzero"/><path fill="#0c228a" d="M 280.261719 75.855469 C 280.121094 75.429688 280.679688 73.496094 279.707031 73.542969 C 278.476562 73.546875 279.191406 77.78125 280.261719 75.855469 " fill-opacity="1" fill-rule="nonzero"/><path fill="#0c228a" d="M 241.984375 63.929688 C 242.199219 64.351562 241.433594 68.199219 242.535156 68.078125 C 243.578125 68.269531 243.417969 61.632812 241.984375 63.929688 " fill-opacity="1" fill-rule="nonzero"/><path fill="#0c228a" d="M 283.285156 80.40625 C 284.996094 79.902344 282.175781 70.503906 282.996094 67.652344 C 280.476562 70.863281 282.078125 76.613281 283.285156 80.40625 " fill-opacity="1" fill-rule="nonzero"/><path fill="#0c228a" d="M 216.332031 235.527344 L 216.332031 261.800781 L 156.050781 261.800781 C 162.179688 258.191406 168.804688 255.265625 175.765625 253.078125 C 176.035156 253.082031 176.023438 245.796875 176.953125 247.945312 C 174.960938 256.246094 191.746094 245.828125 194.578125 245.964844 C 191.035156 243.03125 191.5625 237.207031 188.636719 234.824219 C 186.171875 245.40625 198.65625 243.703125 179.332031 249.28125 C 180.144531 246.285156 174.859375 243.535156 174.246094 247.4375 C 174.246094 247.4375 173.714844 251.691406 173.714844 251.691406 C 165.589844 253.484375 158.226562 259.691406 151.027344 261.449219 C 142.738281 253.421875 170.972656 245.871094 161.25 237.144531 C 167.773438 237.75 191.796875 237.390625 191.398438 230.941406 C 195.058594 231.730469 191.542969 229.019531 192.871094 227.765625 C 199.871094 219.847656 196.308594 209.890625 204.988281 200.09375 C 212.910156 186.300781 218 187.402344 226.503906 200.242188 C 235.125 209.183594 249.570312 230.070312 260.972656 235.527344 Z M 195.1875 205.941406 C 197.886719 193.773438 203.019531 182.425781 204.703125 170.605469 C 214.757812 184.476562 214.828125 186.773438 203.058594 199.140625 C 194.523438 208.976562 197.539062 218.703125 191.023438 226.71875 C 190.890625 219.878906 192.988281 213.0625 195.1875 205.941406 Z M 367.417969 235.527344 L 283.753906 235.527344 C 297.210938 234.742188 316.304688 210.171875 307.773438 202.890625 C 308.605469 232.136719 264.910156 249.03125 247.25 220.96875 C 234.75 202.683594 205.363281 184.136719 208.980469 160.769531 C 205.667969 156.015625 206.839844 168.753906 206.511719 169.417969 C 203.972656 167.191406 202.847656 154.003906 199.5 157.613281 C 209.703125 181.523438 184.988281 206.066406 189.351562 232.015625 C 138.867188 251.375 175.019531 187.113281 175.84375 163.964844 C 178.707031 151.484375 185.566406 132.929688 201.386719 132.421875 C 192.105469 123.265625 174.011719 152.078125 173.699219 163.535156 C 169.074219 186.898438 158.511719 217.054688 160.5 237.859375 C 163.871094 248.53125 141.8125 251.710938 148.273438 261.800781 L 140.011719 261.800781 L 140.011719 289.289062 L 71.359375 289.289062 L 71.359375 317.9375 L 3.074219 317.9375 C 4.699219 317.921875 0.015625 351.460938 5.28125 345.589844 C 5.28125 345.589844 5.28125 319.851562 5.28125 319.851562 L 73.570312 319.851562 L 73.570312 291.207031 L 142.222656 291.207031 L 142.222656 263.71875 L 218.546875 263.71875 L 218.546875 237.445312 C 217.886719 236.09375 375.003906 240.480469 367.417969 235.527344 " fill-opacity="1" fill-rule="nonzero"/></svg>